<svg xmlns="http://www.w3.org/2000/svg" xmlns:xlink="http://www.w3.org/1999/xlink" width="1680" height="488" viewBox="0 0 1680 488"><defs><style>.a,.b,.d,.l,.p,.x{fill:#fff;}.a,.b{stroke:#707070;}.b{opacity:0.45;}.c{clip-path:url(#a);}.e{clip-path:url(#b);}.f{fill:#eeccd2;}.g{fill:#c2e6e5;}.h{fill:#fdabba;}.i{fill:#d9cbfd;}.j{fill:#fcd2a0;}.k,.n{fill:#dfd2ff;}.l{opacity:0.7;}.aa,.ad,.ae,.m,.q,.t,.y{fill:none;}.m{stroke:#b2b2b2;}.ab,.ac,.ad,.ae,.m,.n,.o,.p,.r,.t{stroke-linecap:round;}.aa,.ab,.ac,.ad,.ae,.m,.n,.o,.p,.q,.r,.t,.w,.x,.y,.z{stroke-linejoin:round;}.aa,.ab,.ac,.ae,.n,.o,.p,.r,.t,.w,.x,.y,.z{stroke:#263238;}.o,.u,.w{fill:#263238;}.q{stroke:#0b0b0b;stroke-width:0.5px;}.r{fill:#c4c4c4;}.s{fill:#625d40;}.v{opacity:0.3;}.ab,.z{fill:#999;}.aa,.ae{stroke-width:2px;}.ac{fill:#969696;}.ad{stroke:#fff;}.af{fill:#e1e0ff;}.ag{opacity:0.94;fill:url(#c);}</style><clipPath id="a"><rect class="a" width="1680" height="488" transform="translate(0 483)"/></clipPath><clipPath id="b"><rect class="b" width="1680" height="472" transform="translate(0 0.125)"/></clipPath><linearGradient id="c" x1="0.5" x2="0.5" y2="1" gradientUnits="objectBoundingBox"><stop offset="0" stop-color="#fff"/><stop offset="0.276" stop-color="#fff"/><stop offset="0.38" stop-color="#fff"/><stop offset="0.478" stop-color="#fff" stop-opacity="0.941"/><stop offset="0.683" stop-color="#fff" stop-opacity="0.561"/><stop offset="1" stop-color="#fff" stop-opacity="0.251"/></linearGradient></defs><g class="c" transform="translate(0 -483)"><rect class="d" width="1680" height="945" transform="translate(0 60)"/><g class="e" transform="translate(0 532.875)"><g transform="translate(42.875 29.75)"><ellipse class="f" cx="33" cy="33.5" rx="33" ry="33.5" transform="translate(311.125 51.375)"/><circle class="g" cx="14.5" cy="14.5" r="14.5" transform="translate(478.125 386.375)"/><ellipse class="h" cx="4.5" cy="4" rx="4.5" ry="4" transform="translate(0.125 91.375)"/><circle class="i" cx="4.5" cy="4.5" r="4.5" transform="translate(519.125 204.375)"/><ellipse class="j" cx="11.5" cy="11" rx="11.5" ry="11" transform="translate(137.125 0.375)"/></g><g transform="translate(-19.617 120.75)"><g transform="translate(0 3.707)"><path class="k" d="M274,20.472c-25.695-2.521-51.716-2.521-76.549,5.357-45.78,14.465-69.059,53.239-83.146,96.508-.357,1.05-.7,2.185-1.05,3.278C96.512,178.076-1.709,208.2,10.561,289.691S82.792,357.972,89.81,415.812s91.75,88.167,174.129,82.6,79.238-72.547,126.122-102.685S524,352.195,503.912,246.158c-13.152-69.427-47.272-138.013-102.7-184.171C371.824,37.49,333.869,28.3,296.808,23.2,289.245,22.153,281.639,21.207,274,20.472Z" transform="translate(-9.503 -18.979)"/><path class="l" d="M274,20.472c-25.695-2.521-51.716-2.521-76.549,5.357-45.78,14.465-69.059,53.239-83.146,96.508-.357,1.05-.7,2.185-1.05,3.278C96.512,178.076-1.709,208.2,10.561,289.691S82.792,357.972,89.81,415.812s91.75,88.167,174.129,82.6,79.238-72.547,126.122-102.685S524,352.195,503.912,246.158c-13.152-69.427-47.272-138.013-102.7-184.171C371.824,37.49,333.869,28.3,296.808,23.2,289.245,22.153,281.639,21.207,274,20.472Z" transform="translate(-9.503 -18.979)"/></g><g transform="translate(27.509 12.755)"><path class="m" d="M169.543,50.575c-.242-.735-.483-1.481-.756-2.227-9.875-27.449-55.8-29.34-55.8,4.4,0,6.492-15.6,0-21.451,8.4s.651,13.656-7.143,16.251-8.456-3.866-18.2-3.162-8.4,9.749-11.692,12.354-3.257,1.292-10.4,1.943-8.4,5.851-8.4,5.851H206.6s6.5-19.5-5.2-26.64-11.692,2.595-20.789-1.3C173.052,63.17,171.644,57.056,169.543,50.575Z" transform="translate(-35.69 -27.592)"/><path class="m" d="M172.082,85.489s3.54-10.946-5.158-18.993-17.7-3.54-20.274,0-2.574,10.305-6.755,10.946-3.257-7.038-12.238-5.147S122.184,83.241,118,85.174s-4.2-5.158-9.98-2.9-5.473,6.439-5.473,6.439" transform="translate(-32.315 -25.855)"/><path class="m" d="M126.78,63.7a16.3,16.3,0,0,0-16.524-1.439c-9.318,4.307-5.021,13.257-9.318,15.411S94.5,77.31,89.152,79.821s-5.021,6.093-5.021,6.093" transform="translate(-33.245 -25.923)"/><path class="m" d="M373.532,101.983c-.147-.462-.3-.914-.473-1.376-6.1-16.986-34.519-18.152-34.519,2.71,0,4.023-9.643,0-13.268,5.252s.4,8.4-4.423,10.053-5.252-2.416-11.251-2.017-5.252,6.03-7.238,7.637-2.006.809-6.429,1.208-5.252,3.624-5.252,3.624H396.433s4.013-12.06-3.225-16.482-7.227,1.607-12.858-.809C375.7,109.768,374.824,105.986,373.532,101.983Z" transform="translate(-22.816 -24.554)"/><path class="m" d="M375.066,123.578s2.185-6.765-3.151-11.744-10.946-2.2-12.543,0-1.586,6.366-4.2,6.765-1.985-4.381-7.564-3.151-3.383,6.765-5.967,7.963-2.595-3.151-6.177-1.8-3.383,3.981-3.383,3.981" transform="translate(-20.726 -23.48)"/><path class="m" d="M347.072,110.09a10.085,10.085,0,0,0-10.19-.882c-5.767,2.658-3.151,8.2-5.767,9.528s-3.992-.221-7.353,1.334-3.151,3.771-3.151,3.771" transform="translate(-21.305 -23.521)"/></g><g transform="translate(134.354)"><rect class="n" width="179.056" height="92.674" transform="translate(42.818 302.362)"/><rect class="n" width="179.056" height="22.817" transform="translate(42.818 309.757)"/><rect class="o" width="179.056" height="22.817" transform="translate(42.818 302.362)"/><rect class="n" width="43.133" height="284.577" transform="translate(3.645 110.333)"/><rect class="n" width="43.133" height="61.548" transform="translate(3.645 124.84)"/><rect class="n" width="43.133" height="57.924" transform="translate(3.645 124.84)"/><rect class="n" width="50.423" height="46.862" transform="translate(0 124.84)"/><rect class="n" width="37.429" height="46.862" transform="translate(6.503 124.84)"/><rect class="p" width="32.355" height="32.418" transform="translate(9.16 131.805)"/><ellipse class="p" cx="14.885" cy="14.917" rx="14.885" ry="14.917" transform="translate(10.326 133.359)"/><ellipse class="q" cx="9.412" cy="9.433" rx="9.412" ry="9.433" transform="translate(15.799 138.843)"/><line class="q" y2="5.484" transform="translate(25.212 133.359)"/><line class="q" y2="5.473" transform="translate(25.212 157.71)"/><line class="q" x1="5.463" transform="translate(34.635 148.276)"/><line class="q" x1="5.473" transform="translate(10.326 148.276)"/><line class="q" x1="3.088" y2="4.517" transform="translate(30.538 135.975)"/><line class="q" x1="3.088" y2="4.517" transform="translate(16.797 156.06)"/><line class="q" x1="4.79" y2="2.647" transform="translate(33.458 141.07)"/><line class="q" x1="4.78" y2="2.647" transform="translate(12.186 152.825)"/><line class="q" x1="5.042" y1="2.101" transform="translate(33.91 151.911)"/><line class="q" x1="5.042" y1="2.111" transform="translate(11.482 142.53)"/><line class="q" x1="3.225" y1="4.412" transform="translate(30.779 155.892)"/><line class="q" x1="3.225" y1="4.423" transform="translate(16.43 136.238)"/><line class="q" x1="13.835" y1="9.601" transform="translate(14.003 140.492)"/><line class="q" y1="6.912" x2="3.551" transform="translate(24.287 143.717)"/><rect class="n" width="50.423" height="6.786" transform="translate(0 103.547)"/><path class="r" d="M174.851,91.72H150.438c-1.051,4.706-5.82,17-9.108,23.426h42.534v-.2C180.639,108.517,175.9,96.384,174.851,91.72Z" transform="translate(-137.202 -11.599)"/><rect class="p" width="25.443" height="3.771" transform="translate(12.679 76.349)"/><rect class="n" width="25.443" height="3.614" transform="translate(12.679 53.354)"/><rect class="n" width="23.352" height="19.381" transform="translate(13.572 56.957)"/><path class="r" d="M162.475,24.77h-.609a216.472,216.472,0,0,1-11.555,43.4h23.342a219.99,219.99,0,0,1-11.177-43.4Z" transform="translate(-136.748 -14.979)"/><path class="p" d="M156.855,102.765H153.84V97.008l1.513-1.208,1.5,1.208Z" transform="translate(-136.57 -11.393)"/><path class="p" d="M163.165,102.765H160.15V97.008l1.513-1.208,1.5,1.208Z" transform="translate(-136.251 -11.393)"/><path class="p" d="M169.475,102.765H166.46V97.008l1.513-1.208,1.5,1.208Z" transform="translate(-135.933 -11.393)"/><path class="o" d="M157.578,87.284H155.12V77.073l1.229-2.143,1.229,2.143Z" transform="translate(-136.505 -12.447)"/><path class="o" d="M162.718,87.284H160.26V77.073l1.229-2.143,1.229,2.143Z" transform="translate(-136.246 -12.447)"/><path class="o" d="M167.858,87.284H165.4V77.073l1.229-2.143,1.229,2.143Z" transform="translate(-135.986 -12.447)"/><path class="p" d="M153.755,111.875H150.74v-5.757l1.513-1.208,1.5,1.208Z" transform="translate(-136.727 -10.933)"/><path class="p" d="M160.065,111.875H157.05v-5.757l1.513-1.208,1.5,1.208Z" transform="translate(-136.408 -10.933)"/><path class="p" d="M166.375,111.875H163.36v-5.757l1.5-1.208,1.513,1.208Z" transform="translate(-136.089 -10.933)"/><path class="p" d="M172.575,111.875H169.56v-5.757l1.513-1.208,1.5,1.208Z" transform="translate(-135.776 -10.933)"/><rect class="o" width="3.236" height="10.904" transform="translate(7.606 111.898)"/><rect class="o" width="3.236" height="10.904" transform="translate(14.003 111.898)"/><rect class="o" width="3.236" height="10.904" transform="translate(20.4 111.898)"/><rect class="o" width="3.236" height="10.904" transform="translate(26.798 111.898)"/><rect class="o" width="3.236" height="10.904" transform="translate(33.185 111.898)"/><rect class="o" width="3.236" height="10.904" transform="translate(39.582 111.898)"/><rect class="o" width="3.236" height="10.904" transform="translate(7.606 171.702)"/><rect class="o" width="3.236" height="10.904" transform="translate(14.003 171.702)"/><rect class="o" width="3.236" height="10.904" transform="translate(20.4 171.702)"/><rect class="o" width="3.236" height="10.904" transform="translate(26.798 171.702)"/><rect class="o" width="3.236" height="10.904" transform="translate(33.185 171.702)"/><rect class="o" width="3.236" height="10.904" transform="translate(39.582 171.702)"/><rect class="n" width="3.236" height="30.338" transform="translate(7.606 188.731)"/><rect class="n" width="3.236" height="30.338" transform="translate(14.003 188.731)"/><rect class="n" width="3.236" height="30.338" transform="translate(20.4 188.731)"/><rect class="n" width="3.236" height="30.338" transform="translate(26.798 188.731)"/><rect class="n" width="3.236" height="30.338" transform="translate(33.185 188.731)"/><rect class="n" width="3.236" height="30.338" transform="translate(39.582 188.731)"/><rect class="n" width="3.236" height="7.711" transform="translate(7.606 220.802)"/><rect class="n" width="3.236" height="7.711" transform="translate(14.003 220.802)"/><rect class="n" width="3.236" height="7.711" transform="translate(20.4 220.802)"/><rect class="n" width="3.236" height="7.711" transform="translate(26.798 220.802)"/><rect class="n" width="3.236" height="7.711" transform="translate(33.185 220.802)"/><rect class="n" width="3.236" height="7.711" transform="translate(39.582 220.802)"/><rect class="n" width="3.236" height="7.711" transform="translate(7.606 263.504)"/><rect class="n" width="3.236" height="7.711" transform="translate(14.003 263.504)"/><rect class="n" width="3.236" height="7.711" transform="translate(20.4 263.504)"/><rect class="n" width="3.236" height="7.711" transform="translate(26.798 263.504)"/><rect class="n" width="3.236" height="7.711" transform="translate(33.185 263.504)"/><rect class="n" width="3.236" height="7.711" transform="translate(39.582 263.504)"/><rect class="n" width="3.236" height="31.494" transform="translate(7.606 230.256)"/><rect class="n" width="3.236" height="31.494" transform="translate(14.003 230.256)"/><rect class="n" width="3.236" height="31.494" transform="translate(20.4 230.256)"/><rect class="n" width="3.236" height="31.494" transform="translate(26.798 230.256)"/><rect class="n" width="3.236" height="31.494" transform="translate(33.185 230.256)"/><rect class="n" width="3.236" height="31.494" transform="translate(39.582 230.256)"/><rect class="n" width="3.236" height="31.494" transform="translate(7.606 272.959)"/><rect class="n" width="3.236" height="31.494" transform="translate(14.003 272.959)"/><rect class="n" width="3.236" height="31.494" transform="translate(20.4 272.959)"/><rect class="n" width="3.236" height="31.494" transform="translate(26.798 272.959)"/><rect class="n" width="3.236" height="31.494" transform="translate(33.185 272.959)"/><rect class="n" width="3.236" height="31.494" transform="translate(39.582 272.959)"/><rect class="n" width="3.236" height="7.711" transform="translate(7.606 348.825)"/><rect class="n" width="3.236" height="7.711" transform="translate(14.003 348.825)"/><rect class="n" width="3.236" height="7.711" transform="translate(20.4 348.825)"/><rect class="n" width="3.236" height="7.711" transform="translate(26.798 348.825)"/><rect class="n" width="3.236" height="7.711" transform="translate(33.185 348.825)"/><rect class="n" width="3.236" height="7.711" transform="translate(39.582 348.825)"/><rect class="n" width="3.236" height="31.494" transform="translate(7.606 358.279)"/><rect class="n" width="3.236" height="31.494" transform="translate(14.003 358.279)"/><rect class="n" width="3.236" height="31.494" transform="translate(20.4 358.279)"/><rect class="n" width="3.236" height="31.494" transform="translate(26.798 358.279)"/><rect class="n" width="3.236" height="31.494" transform="translate(33.185 358.279)"/><rect class="n" width="3.236" height="31.494" transform="translate(39.582 358.279)"/><rect class="n" width="3.236" height="11.871" transform="translate(7.606 306.217)"/><rect class="n" width="3.236" height="11.871" transform="translate(14.003 306.217)"/><rect class="n" width="3.236" height="11.871" transform="translate(20.4 306.217)"/><rect class="n" width="3.236" height="11.871" transform="translate(26.798 306.217)"/><rect class="n" width="3.236" height="11.871" transform="translate(33.185 306.217)"/><rect class="n" width="3.236" height="11.871" transform="translate(39.582 306.217)"/><rect class="n" width="3.236" height="27.334" transform="translate(7.606 319.842)"/><rect class="n" width="3.236" height="27.334" transform="translate(14.003 319.842)"/><rect class="n" width="3.236" height="27.334" transform="translate(20.4 319.842)"/><rect class="n" width="3.236" height="27.334" transform="translate(26.798 319.842)"/><rect class="n" width="3.236" height="27.334" transform="translate(33.185 319.842)"/><rect class="n" width="3.236" height="27.334" transform="translate(39.582 319.842)"/><rect class="s" width="0.725" height="10.904" transform="translate(25.107)"/><rect class="s" width="0.725" height="7.984" transform="translate(29.456 5.084) rotate(90)"/><path class="p" d="M162.346,41.426H160.77V38.411l.788-.641.788.641Z" transform="translate(-136.22 -14.323)"/><path class="p" d="M162.346,62.036H160.77V59.021l.788-.641.788.641Z" transform="translate(-136.22 -13.283)"/><path class="p" d="M157.486,62.036H155.91V59.021l.788-.641.788.641Z" transform="translate(-136.465 -13.283)"/><path class="p" d="M167.186,62.036H165.6V59.021l.8-.641.788.641Z" transform="translate(-135.976 -13.283)"/><path class="p" d="M159.846,52.905H158.27V49.89l.788-.63.788.63Z" transform="translate(-136.346 -13.743)"/><path class="p" d="M164.846,52.905H163.27V49.89l.788-.63.788.63Z" transform="translate(-136.094 -13.743)"/><line class="n" x2="197.345" transform="translate(3.855 395.099)"/><rect class="n" width="5.074" height="84.407" transform="translate(68.019 310.629)"/><rect class="n" width="2.511" height="2.164" transform="translate(69.343 305.03)"/><path class="n" d="M205.88,298.54h-2.5l.714,2.164h.977Z" transform="translate(-134.069 -1.158)"/><rect class="n" width="3.54" height="2.164" transform="translate(68.817 306.763)"/><rect class="n" width="5.095" height="1.817" transform="translate(68.04 308.224)"/><rect class="n" width="6.303" height="1.639" transform="translate(67.441 309.957)"/><rect class="n" width="0.567" height="11.723" transform="translate(70.278 293.286)"/><rect class="n" width="5.074" height="84.407" transform="translate(96.256 310.629)"/><rect class="n" width="2.5" height="2.164" transform="translate(97.569 305.03)"/><path class="n" d="M232.761,298.54H230.25l.714,2.164h.987Z" transform="translate(-132.712 -1.158)"/><rect class="n" width="3.54" height="2.164" transform="translate(97.055 306.763)"/><rect class="n" width="5.095" height="1.817" transform="translate(96.277 308.224)"/><rect class="n" width="6.303" height="1.639" transform="translate(95.668 309.957)"/><rect class="n" width="0.567" height="11.723" transform="translate(98.504 293.286)"/><rect class="n" width="5.074" height="84.407" transform="translate(124.483 310.629)"/><rect class="n" width="2.5" height="2.164" transform="translate(125.806 305.03)"/><path class="n" d="M259.63,298.54h-2.5l.714,2.164h.987Z" transform="translate(-131.355 -1.158)"/><rect class="n" width="3.54" height="2.164" transform="translate(125.281 306.763)"/><rect class="n" width="5.095" height="1.817" transform="translate(124.504 308.224)"/><rect class="n" width="6.303" height="1.639" transform="translate(123.905 309.957)"/><rect class="n" width="0.567" height="11.723" transform="translate(126.741 293.286)"/><rect class="n" width="5.074" height="84.407" transform="translate(152.72 310.629)"/><rect class="n" width="2.5" height="2.164" transform="translate(154.033 305.03)"/><path class="n" d="M286.511,298.54H284l.725,2.164h.977Z" transform="translate(-129.999 -1.158)"/><rect class="n" width="3.54" height="2.164" transform="translate(153.518 306.763)"/><rect class="n" width="5.095" height="1.817" transform="translate(152.741 308.224)"/><rect class="n" width="6.303" height="1.639" transform="translate(152.132 309.957)"/><rect class="n" width="0.567" height="11.723" transform="translate(154.968 293.286)"/><rect class="n" width="5.074" height="84.407" transform="translate(180.957 310.629)"/><rect class="n" width="2.511" height="2.164" transform="translate(182.27 305.03)"/><path class="n" d="M313.38,298.54h-2.5l.714,2.164h.987Z" transform="translate(-128.641 -1.158)"/><rect class="n" width="3.54" height="2.164" transform="translate(181.755 306.763)"/><rect class="n" width="5.095" height="1.817" transform="translate(180.978 308.224)"/><rect class="n" width="6.303" height="1.639" transform="translate(180.369 309.957)"/><rect class="n" width="0.567" height="11.723" transform="translate(183.205 293.286)"/><rect class="n" width="5.074" height="84.407" transform="translate(209.184 310.629)"/><rect class="n" width="2.5" height="2.164" transform="translate(210.507 305.03)"/><path class="n" d="M340.261,298.54H337.75l.725,2.164h.977Z" transform="translate(-127.285 -1.158)"/><rect class="n" width="3.54" height="2.164" transform="translate(209.982 306.763)"/><rect class="n" width="5.095" height="1.817" transform="translate(209.205 308.224)"/><rect class="n" width="6.303" height="1.639" transform="translate(208.606 309.957)"/><rect class="n" width="0.567" height="11.723" transform="translate(211.442 293.286)"/><rect class="n" width="8.519" height="7.196" transform="translate(51.684 318.014)"/><path class="n" d="M190.705,310.73l-1.145,7.626h2.29Z" transform="translate(-134.767 -0.542)"/><rect class="n" width="8.519" height="7.196" transform="translate(79.774 318.014)"/><path class="n" d="M217.445,310.73l-1.145,7.626h2.29Z" transform="translate(-133.417 -0.542)"/><rect class="n" width="8.519" height="7.196" transform="translate(107.864 318.014)"/><path class="n" d="M244.185,310.73l-1.145,7.626h2.29Z" transform="translate(-132.067 -0.542)"/><rect class="n" width="8.519" height="7.196" transform="translate(135.944 318.014)"/><path class="n" d="M270.925,310.73l-1.145,7.626h2.29Z" transform="translate(-130.716 -0.542)"/><rect class="n" width="8.519" height="7.196" transform="translate(164.034 318.014)"/><path class="n" d="M297.665,310.73l-1.145,7.626h2.29Z" transform="translate(-129.366 -0.542)"/><rect class="n" width="8.519" height="7.196" transform="translate(192.124 318.014)"/><path class="n" d="M324.405,310.73l-1.145,7.626h2.29Z" transform="translate(-128.016 -0.542)"/><rect class="n" width="11.429" height="15.915" transform="translate(50.423 334.223)"/><rect class="n" width="11.429" height="15.915" transform="translate(78.65 334.223)"/><rect class="n" width="11.429" height="15.915" transform="translate(106.887 334.223)"/><rect class="n" width="11.429" height="15.915" transform="translate(135.114 334.223)"/><rect class="n" width="11.429" height="15.915" transform="translate(163.351 334.223)"/><rect class="n" width="11.429" height="15.915" transform="translate(191.588 334.223)"/><rect class="n" width="11.429" height="15.915" transform="translate(50.423 354.582)"/><rect class="n" width="11.429" height="15.915" transform="translate(78.65 354.582)"/><rect class="n" width="11.429" height="15.915" transform="translate(106.887 354.582)"/><rect class="n" width="11.429" height="15.915" transform="translate(135.114 354.582)"/><rect class="n" width="11.429" height="15.915" transform="translate(163.351 354.582)"/><rect class="n" width="11.429" height="15.915" transform="translate(191.588 354.582)"/><rect class="n" width="11.429" height="15.915" transform="translate(50.423 374.951)"/><rect class="n" width="11.429" height="15.915" transform="translate(78.65 374.951)"/><rect class="n" width="11.429" height="15.915" transform="translate(106.887 374.951)"/><rect class="n" width="11.429" height="15.915" transform="translate(135.114 374.951)"/><rect class="n" width="11.429" height="15.915" transform="translate(163.351 374.951)"/><rect class="n" width="11.429" height="15.915" transform="translate(191.588 374.951)"/></g><g transform="translate(11.688 343.047)"><rect class="p" width="17.501" height="9.055" transform="translate(19.886 23.857)"/><path class="p" d="M60.11,435.535H36.8l2.9-9.055H57.2Z" transform="translate(-19.814 -337.745)"/><rect class="p" width="26.556" height="7.238" transform="translate(15.358 17.217)"/><path class="p" d="M56.573,372.76h-15.9a72.578,72.578,0,0,1-4.885,26,30.3,30.3,0,0,0-2.353,12.364c.525,9.15,7.521,14.959,9.265,16.272v.294h11.86V427.4c1.744-1.313,8.73-7.122,9.265-16.272a30.139,30.139,0,0,0-2.364-12.364,72.81,72.81,0,0,1-4.885-26Z" transform="translate(-19.984 -340.458)"/><path class="p" d="M58.747,375.842H38.231a2.1,2.1,0,0,1-2.1-2.1h0a2.1,2.1,0,0,1,2.1-2.1H58.747a2.1,2.1,0,0,1,2.1,2.1h0A2.1,2.1,0,0,1,58.747,375.842Z" transform="translate(-19.847 -340.514)"/><path class="p" d="M58.747,428.122H38.231a2.1,2.1,0,0,1-2.1-2.1h0a2.1,2.1,0,0,1,2.1-2.1H58.747a2.1,2.1,0,0,1,2.1,2.1h0A2.1,2.1,0,0,1,58.747,428.122Z" transform="translate(-19.847 -337.875)"/><rect class="p" width="26.556" height="7.238" transform="translate(15.358 95.069)"/><rect class="p" width="17.501" height="9.055" transform="translate(54.888 23.857)"/><path class="p" d="M93.43,435.535H70.12l2.91-9.055h17.5Z" transform="translate(-18.131 -337.745)"/><rect class="p" width="26.556" height="7.238" transform="translate(50.371 17.217)"/><path class="p" d="M89.9,372.76H73.988a72.578,72.578,0,0,1-4.874,26,30.3,30.3,0,0,0-2.353,12.364c.525,9.15,7.521,14.959,9.265,16.272v.294H87.875V427.4c1.744-1.313,8.74-7.122,9.265-16.272a30.3,30.3,0,0,0-2.353-12.364A72.578,72.578,0,0,1,89.9,372.76Z" transform="translate(-18.301 -340.458)"/><path class="p" d="M92.088,375.842H71.551a2.1,2.1,0,0,1-2.1-2.1h0a2.1,2.1,0,0,1,2.1-2.1H92.088a2.1,2.1,0,0,1,2.1,2.1h0A2.1,2.1,0,0,1,92.088,375.842Z" transform="translate(-18.165 -340.514)"/><path class="p" d="M92.088,428.122H71.551a2.1,2.1,0,0,1-2.1-2.1h0a2.1,2.1,0,0,1,2.1-2.1H92.088a2.1,2.1,0,0,1,2.1,2.1h0A2.1,2.1,0,0,1,92.088,428.122Z" transform="translate(-18.165 -337.875)"/><rect class="p" width="26.556" height="7.238" transform="translate(50.371 95.069)"/><rect class="p" width="17.501" height="9.055" transform="translate(89.901 23.857)"/><path class="p" d="M126.75,435.535h-23.3l2.9-9.055h17.5Z" transform="translate(-16.449 -337.745)"/><rect class="p" width="26.556" height="7.238" transform="translate(85.373 17.217)"/><path class="p" d="M123.221,372.76H107.348a72.809,72.809,0,0,1-4.885,26,30.128,30.128,0,0,0-2.353,12.364c.525,9.15,7.511,14.959,9.255,16.272v.294h11.86V427.4c1.754-1.313,8.74-7.122,9.265-16.272a30.128,30.128,0,0,0-2.353-12.364,72.81,72.81,0,0,1-4.916-26Z" transform="translate(-16.618 -340.458)"/><path class="p" d="M125.4,375.842H104.871a2.1,2.1,0,0,1-2.1-2.1h0a2.1,2.1,0,0,1,2.1-2.1H125.4a2.1,2.1,0,0,1,2.1,2.1h0A2.1,2.1,0,0,1,125.4,375.842Z" transform="translate(-16.483 -340.514)"/><path class="p" d="M125.4,428.122H104.871a2.1,2.1,0,0,1-2.1-2.1h0a2.1,2.1,0,0,1,2.1-2.1H125.4a2.1,2.1,0,0,1,2.1,2.1h0A2.1,2.1,0,0,1,125.4,428.122Z" transform="translate(-16.483 -337.875)"/><rect class="p" width="26.556" height="7.238" transform="translate(85.373 95.069)"/><rect class="p" width="17.501" height="9.055" transform="translate(124.903 23.857)"/><path class="p" d="M160.08,435.535H136.77l2.9-9.055h17.5Z" transform="translate(-14.766 -337.745)"/><rect class="p" width="26.556" height="7.238" transform="translate(120.375 17.217)"/><path class="p" d="M156.543,372.76h-15.9a72.578,72.578,0,0,1-4.885,26,30.128,30.128,0,0,0-2.353,12.364c.525,9.15,7.521,14.959,9.265,16.272v.294h11.86V427.4c1.744-1.313,8.73-7.122,9.265-16.272a30.138,30.138,0,0,0-2.364-12.364,72.809,72.809,0,0,1-4.885-26Z" transform="translate(-14.937 -340.458)"/><path class="p" d="M158.717,375.842H138.2a2.1,2.1,0,0,1-2.1-2.1h0a2.1,2.1,0,0,1,2.1-2.1h20.516a2.1,2.1,0,0,1,2.1,2.1h0A2.1,2.1,0,0,1,158.717,375.842Z" transform="translate(-14.8 -340.514)"/><path class="p" d="M158.717,428.122H138.2a2.1,2.1,0,0,1-2.1-2.1h0a2.1,2.1,0,0,1,2.1-2.1h20.516a2.1,2.1,0,0,1,2.1,2.1h0A2.1,2.1,0,0,1,158.717,428.122Z" transform="translate(-14.8 -337.875)"/><rect class="p" width="26.556" height="7.238" transform="translate(120.375 95.069)"/><rect class="p" width="17.501" height="9.055" transform="translate(159.905 23.857)"/><path class="p" d="M193.4,435.535H170.09l2.9-9.055H190.5Z" transform="translate(-13.084 -337.745)"/><rect class="p" width="26.556" height="7.238" transform="translate(155.388 17.217)"/><path class="p" d="M189.871,372.76H173.956a72.577,72.577,0,0,1-4.843,26,30.3,30.3,0,0,0-2.353,12.364c.525,9.15,7.521,14.959,9.265,16.272v.294h11.86V427.4c1.744-1.313,8.74-7.122,9.265-16.272A30.3,30.3,0,0,0,194.8,398.76,72.578,72.578,0,0,1,189.871,372.76Z" transform="translate(-13.253 -340.458)"/><path class="p" d="M192.09,375.842H171.521a2.1,2.1,0,0,1-2.1-2.1h0a2.1,2.1,0,0,1,2.1-2.1H192.09a2.1,2.1,0,0,1,2.1,2.1h0A2.1,2.1,0,0,1,192.09,375.842Z" transform="translate(-13.118 -340.514)"/><path class="p" d="M192.09,428.122H171.521a2.1,2.1,0,0,1-2.1-2.1h0a2.1,2.1,0,0,1,2.1-2.1H192.09a2.1,2.1,0,0,1,2.1,2.1h0A2.1,2.1,0,0,1,192.09,428.122Z" transform="translate(-13.118 -337.875)"/><rect class="p" width="26.556" height="7.238" transform="translate(155.388 95.069)"/><rect class="p" width="17.501" height="9.055" transform="translate(194.918 23.857)"/><path class="p" d="M226.72,435.535H203.41l2.91-9.055h17.5Z" transform="translate(-11.402 -337.745)"/><rect class="p" width="26.556" height="7.238" transform="translate(190.39 17.217)"/><path class="p" d="M223.193,372.76h-15.9a72.808,72.808,0,0,1-4.885,26,30.128,30.128,0,0,0-2.353,12.364c.525,9.15,7.511,14.959,9.255,16.272v.294h11.86V427.4c1.744-1.313,8.74-7.122,9.265-16.272a30.128,30.128,0,0,0-2.353-12.364,72.578,72.578,0,0,1-4.885-26Z" transform="translate(-11.572 -340.458)"/><path class="p" d="M225.368,375.842H204.841a2.1,2.1,0,0,1-2.1-2.1h0a2.1,2.1,0,0,1,2.1-2.1h20.527a2.1,2.1,0,0,1,2.1,2.1h0A2.1,2.1,0,0,1,225.368,375.842Z" transform="translate(-11.436 -340.514)"/><path class="p" d="M225.368,428.122H204.841a2.1,2.1,0,0,1-2.1-2.1h0a2.1,2.1,0,0,1,2.1-2.1h20.527a2.1,2.1,0,0,1,2.1,2.1h0A2.1,2.1,0,0,1,225.368,428.122Z" transform="translate(-11.436 -337.875)"/><rect class="p" width="26.556" height="7.238" transform="translate(190.39 95.069)"/><rect class="p" width="17.501" height="9.055" transform="translate(229.92 23.857)"/><path class="p" d="M260.05,435.535H236.74l2.9-9.055h17.5Z" transform="translate(-9.719 -337.745)"/><rect class="p" width="26.556" height="7.238" transform="translate(225.393 17.217)"/><path class="p" d="M256.513,372.76h-15.9a72.578,72.578,0,0,1-4.885,26,30.127,30.127,0,0,0-2.353,12.364c.525,9.15,7.521,14.959,9.265,16.272v.294H254.5V427.4c1.744-1.313,8.73-7.122,9.265-16.272A30.138,30.138,0,0,0,261.4,398.76,72.81,72.81,0,0,1,256.513,372.76Z" transform="translate(-9.89 -340.458)"/><path class="p" d="M258.688,375.842H238.161a2.1,2.1,0,0,1-2.1-2.1h0a2.1,2.1,0,0,1,2.1-2.1h20.527a2.1,2.1,0,0,1,2.1,2.1h0A2.1,2.1,0,0,1,258.688,375.842Z" transform="translate(-9.753 -340.514)"/><path class="p" d="M258.688,428.122H238.161a2.1,2.1,0,0,1-2.1-2.1h0a2.1,2.1,0,0,1,2.1-2.1h20.527a2.1,2.1,0,0,1,2.1,2.1h0A2.1,2.1,0,0,1,258.688,428.122Z" transform="translate(-9.753 -337.875)"/><rect class="p" width="26.556" height="7.238" transform="translate(225.393 95.069)"/><rect class="p" width="17.501" height="9.055" transform="translate(264.922 23.857)"/><path class="p" d="M293.37,435.535H270.06l2.9-9.055h17.512Z" transform="translate(-8.037 -337.745)"/><rect class="p" width="26.556" height="7.238" transform="translate(260.405 17.217)"/><path class="p" d="M289.843,372.76H273.928a72.578,72.578,0,0,1-4.885,26,30.3,30.3,0,0,0-2.353,12.364c.525,9.15,7.522,14.959,9.265,16.272v.294h11.86V427.4c1.744-1.313,8.74-7.122,9.265-16.272a30.3,30.3,0,0,0-2.353-12.364,72.579,72.579,0,0,1-4.885-26Z" transform="translate(-8.207 -340.458)"/><path class="p" d="M292.007,375.842H271.491a2.1,2.1,0,0,1-2.1-2.1h0a2.1,2.1,0,0,1,2.1-2.1h20.516a2.1,2.1,0,0,1,2.1,2.1h0A2.1,2.1,0,0,1,292.007,375.842Z" transform="translate(-8.071 -340.514)"/><path class="p" d="M292.007,428.122H271.491a2.1,2.1,0,0,1-2.1-2.1h0a2.1,2.1,0,0,1,2.1-2.1h20.516a2.1,2.1,0,0,1,2.1,2.1h0A2.1,2.1,0,0,1,292.007,428.122Z" transform="translate(-8.071 -337.875)"/><rect class="p" width="26.556" height="7.238" transform="translate(260.405 95.069)"/><rect class="p" width="17.501" height="9.055" transform="translate(299.935 23.857)"/><path class="p" d="M326.69,435.535H303.38l2.91-9.055h17.5Z" transform="translate(-6.355 -337.745)"/><rect class="p" width="26.556" height="7.238" transform="translate(295.408 17.217)"/><path class="p" d="M323.164,372.76h-15.9a72.808,72.808,0,0,1-4.885,26A30.308,30.308,0,0,0,300,411.124c.536,9.15,7.521,14.959,9.265,16.272v.294h11.86V427.4c1.744-1.313,8.74-7.122,9.265-16.272a30.128,30.128,0,0,0-2.353-12.364A72.578,72.578,0,0,1,323.164,372.76Z" transform="translate(-6.526 -340.458)"/><path class="p" d="M325.337,375.842H304.811a2.1,2.1,0,0,1-2.1-2.1h0a2.1,2.1,0,0,1,2.1-2.1h20.527a2.1,2.1,0,0,1,2.1,2.1h0A2.1,2.1,0,0,1,325.337,375.842Z" transform="translate(-6.388 -340.514)"/><path class="p" d="M325.337,428.122H304.811a2.1,2.1,0,0,1-2.1-2.1h0a2.1,2.1,0,0,1,2.1-2.1h20.527a2.1,2.1,0,0,1,2.1,2.1h0A2.1,2.1,0,0,1,325.337,428.122Z" transform="translate(-6.388 -337.875)"/><rect class="p" width="26.556" height="7.238" transform="translate(295.408 95.069)"/><rect class="p" width="17.501" height="9.055" transform="translate(334.937 23.857)"/><path class="p" d="M360.01,435.535h-23.3l2.9-9.055h17.5Z" transform="translate(-4.672 -337.745)"/><rect class="p" width="26.556" height="7.238" transform="translate(330.41 17.217)"/><path class="p" d="M356.483,372.76h-15.9a72.578,72.578,0,0,1-4.885,26,30.13,30.13,0,0,0-2.353,12.364c.525,9.15,7.521,14.959,9.265,16.272v.294h11.86V427.4c1.744-1.313,8.729-7.122,9.265-16.272a30.139,30.139,0,0,0-2.385-12.364A72.81,72.81,0,0,1,356.483,372.76Z" transform="translate(-4.842 -340.458)"/><path class="p" d="M358.659,375.842H338.1a2.1,2.1,0,0,1-2.1-2.1h0a2.1,2.1,0,0,1,2.1-2.1h20.527a2.1,2.1,0,0,1,2.1,2.1h0a2.1,2.1,0,0,1-2.07,2.1Z" transform="translate(-4.708 -340.514)"/><path class="p" d="M358.659,428.122H338.1a2.1,2.1,0,0,1-2.1-2.1h0a2.1,2.1,0,0,1,2.1-2.1h20.527a2.1,2.1,0,0,1,2.1,2.1h0a2.1,2.1,0,0,1-2.07,2.1Z" transform="translate(-4.708 -337.875)"/><rect class="p" width="26.556" height="7.238" transform="translate(330.41 95.069)"/><rect class="p" width="17.501" height="9.055" transform="translate(369.94 23.857)"/><path class="p" d="M393.34,435.535H370.03l2.9-9.055h17.512Z" transform="translate(-2.99 -337.745)"/><rect class="p" width="26.556" height="7.238" transform="translate(365.423 17.217)"/><path class="p" d="M389.813,372.76H373.9a72.578,72.578,0,0,1-4.885,26,30.3,30.3,0,0,0-2.353,12.364c.525,9.15,7.521,14.959,9.265,16.272v.294h11.86V427.4c1.744-1.313,8.74-7.122,9.265-16.272A30.3,30.3,0,0,0,394.7,398.76a72.577,72.577,0,0,1-4.885-26Z" transform="translate(-3.16 -340.458)"/><path class="p" d="M391.977,375.842H371.461a2.1,2.1,0,0,1-2.1-2.1h0a2.1,2.1,0,0,1,2.1-2.1h20.516a2.1,2.1,0,0,1,2.1,2.1h0A2.1,2.1,0,0,1,391.977,375.842Z" transform="translate(-3.024 -340.514)"/><path class="p" d="M391.977,428.122H371.461a2.1,2.1,0,0,1-2.1-2.1h0a2.1,2.1,0,0,1,2.1-2.1h20.516a2.1,2.1,0,0,1,2.1,2.1h0A2.1,2.1,0,0,1,391.977,428.122Z" transform="translate(-3.024 -337.875)"/><rect class="p" width="26.556" height="7.238" transform="translate(365.423 95.069)"/><rect class="p" width="397.778" height="9.433" transform="translate(0 8.131)"/><rect class="p" width="397.778" height="9.433"/><rect class="p" width="398.345" height="25.464" transform="translate(0 101.645)"/><rect class="p" width="398.345" height="7.311" transform="translate(0 101.645)"/></g><g transform="translate(355.586 120.546)"><path class="n" d="M467.987,169.835H348V144.623l.252-.126a131.542,131.542,0,0,1,115.375-1.9l4.36,2.038Z" transform="translate(-348 -130.202)"/><path class="n" d="M463.759,165.992H351.84V145.3l.242-.105a133.822,133.822,0,0,1,107.612-1.618l4.065,1.723Z" transform="translate(-347.806 -130.057)"/><rect class="n" width="119.987" height="257.107" transform="translate(0 38.624)"/><rect class="n" width="119.987" height="287.35" transform="translate(0 72.901)"/><rect class="n" width="93.767" height="271.225" transform="translate(13.11 85.003)"/><rect class="p" width="92.758" height="16.135" transform="translate(13.11 45.673)"/><line class="t" x2="71.591" transform="translate(25.212 324.966)"/><line class="t" x2="71.591" transform="translate(25.212 343.118)"/><path class="u" d="M370.2,187.9V176.95H367.89v-.63h5.368v.63H371V187.9Z" transform="translate(-346.996 -127.874)"/><path class="u" d="M377,187.9V176.34h4.013v.63h-3.225v4.643h2.647v.6h-2.647v5.095h3.267v.609Z" transform="translate(-346.536 -127.873)"/><path class="u" d="M385.06,187.9V176.34h.767v10.967h3.509v.609Z" transform="translate(-346.129 -127.873)"/><path class="u" d="M392.84,187.9V176.34h4v.63h-3.215v4.643h2.647v.6h-2.647v5.095h3.257v.609Z" transform="translate(-345.736 -127.873)"/><path class="u" d="M400.93,187.9V176.34h2.71a2.9,2.9,0,0,1,1.628.389,2.038,2.038,0,0,1,.819,1.051,4.759,4.759,0,0,1,0,2.994,2.258,2.258,0,0,1-.819,1.145,2.553,2.553,0,0,1-1.618.441H401.7V187.9Zm.767-6.135h1.786a2.352,2.352,0,0,0,1.156-.242,1.5,1.5,0,0,0,.672-.777,3.865,3.865,0,0,0,.221-1.439,4.36,4.36,0,0,0-.2-1.45,1.24,1.24,0,0,0-.651-.725,2.826,2.826,0,0,0-1.187-.21h-1.8Z" transform="translate(-345.328 -127.873)"/><path class="u" d="M410.23,187.9V176.34h.809v5.252H415.1V176.34h.767V187.9H415.1v-5.757h-4.065V187.9Z" transform="translate(-344.858 -127.873)"/><path class="u" d="M422.967,188.06a2.9,2.9,0,0,1-1.744-.452,2.29,2.29,0,0,1-.872-1.229,6.017,6.017,0,0,1-.242-1.765v-5.063a5.252,5.252,0,0,1,.263-1.744,2.322,2.322,0,0,1,.872-1.187,3.057,3.057,0,0,1,1.723-.42,3,3,0,0,1,1.723.42,2.29,2.29,0,0,1,.882,1.187,5.578,5.578,0,0,1,.263,1.744v5.084a5.662,5.662,0,0,1-.252,1.754,2.238,2.238,0,0,1-.861,1.219,2.91,2.91,0,0,1-1.754.452Zm0-.641a2.2,2.2,0,0,0,1.282-.326,1.66,1.66,0,0,0,.62-.924,4.967,4.967,0,0,0,.179-1.376v-5.347a4.864,4.864,0,0,0-.179-1.376,1.639,1.639,0,0,0-.609-.9,2.684,2.684,0,0,0-2.563,0,1.618,1.618,0,0,0-.63.9,5.253,5.253,0,0,0-.168,1.376v5.347a5.419,5.419,0,0,0,.168,1.376,1.67,1.67,0,0,0,.63.924A2.185,2.185,0,0,0,422.967,187.419Z" transform="translate(-344.359 -127.88)"/><path class="u" d="M430.09,187.9V176.34h.609l3.929,9.78v-9.78h.693V187.9h-.62l-3.929-9.812v9.791Z" transform="translate(-343.855 -127.873)"/><path class="u" d="M439.8,187.9V176.34h4v.63h-3.215v4.643h2.647v.6h-2.647v5.095h3.257v.609Z" transform="translate(-343.365 -127.873)"/><path class="u" d="M418.476,362.551H396.258V332.3h22.186Zm-22.218,34.277h22.186V366.585H396.258Zm22.218-133.076H396.258V294h22.186Zm0,34.277H396.258v30.244h22.186Zm-26.21,98.8V366.585H370.08v30.243Zm0-68.565V298.02H370.08v30.244Zm0,34.288V332.3H370.08v30.254Zm0-98.809H370.08v30.244h22.186Zm30.254-4.034H443.7V227.28H422.52ZM392.266,400.863H370.08v34.445h22.186Zm0-141.154V227.28H370.08v32.429Zm30.254,4.044V294H443.7V263.753Zm0,137.12v34.445H443.7V400.863Zm0-68.565v30.254H443.7V332.308ZM443.7,366.6H422.52v30.244H443.7ZM422.52,298.02v30.244H443.7V298.02Zm-26.262-70.74v32.429h22.186V227.28Zm22.186,208V400.863H396.258v34.445Z" transform="translate(-346.885 -125.301)"/><g class="v" transform="translate(26.189 173.097)"><path class="d" d="M441.157,327.25h-17.48L419.99,334.4v23.1h21.167Z" transform="translate(-370.554 -293.351)"/><rect class="d" width="21.178" height="34.445" transform="translate(49.436 102.465)"/><path class="d" d="M395.04,390.134h22.176V359.89h-9.959L395.04,383.579Z" transform="translate(-371.814 -291.703)"/><rect class="d" width="21.178" height="30.244" transform="translate(49.436 68.187)"/><path class="d" d="M392.112,426.966V392.52h-1.418L372.93,426.966Z" transform="translate(-372.93 -290.055)"/><path class="d" d="M425.48,324.845h15.4V294.98Z" transform="translate(-370.277 -294.98)"/><rect class="d" width="22.186" height="34.445" transform="translate(23.216 102.465)"/><path class="d" d="M416.529,341.5l-7.879,15.285h7.879Z" transform="translate(-371.127 -292.631)"/></g></g><g transform="translate(0 170.933)"><path class="w" d="M65.21,356.41S88.3,445.533,92.591,461.117s13.42,57.449,14.5,70.869,12.879,25.5,19.057,27.381c6.579,2.007,14.764-2.147,14.764-10.191s-14.991-28.2-18.254-36.246-4.834-20.139-5.916-35.182c-.349-5.078-6.98-116.5-6.98-116.5Z" transform="translate(-5.683 -119.126)"/><path class="x" d="M86,441.434a11.254,11.254,0,0,1,3.49-1.065c3.386-.331,9.319-3.49,13.245-5.689a84.446,84.446,0,0,0,4.468,19.929c3.228,8.045,18.254,28.184,18.254,36.246s-8.185,12.216-14.764,10.191c-6.178-1.885-17.992-13.961-19.057-27.381C91.1,467.331,88.792,454.679,86,441.434Z" transform="translate(9.808 -60.805)"/><path class="x" d="M89.4,458.49c3.124,6.09,9.319,17.259,13.961,19.458,6.178,2.949,12.355,4.293,16.648-1.344,2.5-3.281,1.745-7.923.646-11.221a20.941,20.941,0,0,1,2.3,7.731c0,8.045-8.185,12.216-14.764,10.192C102.349,481.543,91.634,470.863,89.4,458.49Z" transform="translate(12.341 -43.064)"/><path class="y" d="M92.8,441.48s6.98,17.73,9.127,22.826,4.555,6.7,2.949,7.783-4.293,1.606-5.375-.262-8.586-26.055-8.586-26.055Z" transform="translate(13.474 -55.739)"/><path class="w" d="M144.854,355.79l-20.941,82.7s-1.065,22.547-6.439,34.361-14.485,56.908-14.485,56.908,1.065,19.336,1.606,27.381-3.228,10.75-11.814,10.75-16.648,1.065-18.254-9.668,6.98-28.463,6.98-30.068,2.146-19.877,4.834-25.234,5.358-64.43,6.44-71.952,3.752-68.2,3.752-68.2Z" transform="translate(1.109 -119.588)"/><path class="x" d="M86.34,441.195a4.887,4.887,0,0,0,.279-.785c14.729-5.741,20.3,4.1,21.064,5.846C105,458.035,102.988,468,102.988,468s1.065,19.336,1.605,27.381-3.228,10.75-11.814,10.75-16.648,1.064-18.254-9.668,6.98-28.463,6.98-30.069S83.652,446.552,86.34,441.195Z" transform="translate(1.109 -57.862)"/><path class="y" d="M96.859,441.643,88.2,453.824l-2.757-.785L83.09,439.27" transform="translate(7.64 -57.385)"/><path class="y" d="M89.055,447.945s-3.927,16.928-3.927,20.854a56.505,56.505,0,0,0,.524,6.876,1.9,1.9,0,0,1-1.536,2.112h0a1.885,1.885,0,0,1-2.2-2.112c.471-3.7,1.344-10.314,1.623-11.989.4-2.356,2.757-16.526,2.757-16.526Z" transform="translate(6.753 -51.506)"/><path class="y" d="M94.15,468.779a15.706,15.706,0,0,0-15.34-2.74" transform="translate(4.45 -38.118)"/><path class="x" d="M74.521,475.359a27.363,27.363,0,0,1,.3-8.359,28.236,28.236,0,0,0,2.216,7.085c3.141,6.684,4.328,7.469,16.125,7.469s11.431-7.277,11.431-7.277c.541,8.062-3.228,10.75-11.814,10.75S76.127,486.092,74.521,475.359Z" transform="translate(1.113 -36.723)"/><path class="x" d="M137.816,347.69s2.146,18.62,1.745,20.767-3.49,2.461-3.49,2.461A79.5,79.5,0,0,1,125.6,373.8c-1.745,0-3.49-3.228-4.642-3.595s-1.448-6.44-1.448-6.44l7.172-12.216Z" transform="translate(34.777 -125.624)"/><path class="x" d="M130.607,355.481s-1.065,6.44-2.147,7.155,1.082,7.172-1.431,9.319-3.49.349-3.926-1.431a56.963,56.963,0,0,1-.366-7.521c0-1.082-2.147-8.952-2.147-8.952" transform="translate(35.582 -120.885)"/><path class="x" d="M39.5,357.13s.715,9.3-.715,10.384-1.745-.366-2.146-3.229a54.829,54.829,0,0,1-.349-6.806Z" transform="translate(-27.233 -118.59)"/><path class="x" d="M40.982,356.3s3.944,6.806,3.944,8.237-8.586-6.09-8.586-6.09S39.115,354.518,40.982,356.3Z" transform="translate(-27.195 -119.555)"/><path class="x" d="M60.593,349.165a103.765,103.765,0,0,0-1.745,14.328c0,5.008,2.513,11.081-.349,11.8s-3.944-3.49-4.659-6.073a69.54,69.54,0,0,1-1.065-9.668s-12.216,11.814-13.961,12.879-4.659,2.513-6.806,2.146,0-3.577,1.431-5.008,4.293-5.009,4.293-5.009a56.576,56.576,0,0,1,2.862-9.3c1.431-2.862,8.952-11.465,8.952-11.465Z" transform="translate(-31.1 -128.53)"/><path class="z" d="M171.217,269.449s9.668,7.155,9.668,12.879,15.392,62.3,15.392,62.3l11.814,59.421-20.4,12.216.349,6.091s-12.879,5.357-16.456,8.219-25.06,8.6-31.866,9.668a83.429,83.429,0,0,1-11.814,1.082l-2.461-6.492-1.745,6.073a96.225,96.225,0,0,1-18.62-1.431c-10.366-1.745-32.564-15.026-32.564-15.026s-1.431-38.305,1.745-46.891A192.813,192.813,0,0,0,80,358.589L61.012,407.976a22.389,22.389,0,0,1-8.22.366c-3.944-.716-15.043-7.888-15.043-7.888l11.465-32.564,19.319-55.844s5.008-26.84,8.586-33.646a15.1,15.1,0,0,1,9.93-8.237c1.745-.716,30.784,6.09,36.508,5.375s35.443-5.375,37.59-6.439S171.217,269.449,171.217,269.449Z" transform="translate(-26.144 -184.479)"/><path class="y" d="M61.93,340.082s6.439-26.491,6.439-27.922,2.146-18.62,2.146-18.62" transform="translate(-8.127 -165.972)"/><path class="y" d="M113.821,287.8l-1.431,37.224,19.685,76.96" transform="translate(29.472 -170.249)"/><path class="y" d="M91.191,287.39s-2.862,35.426-2.862,48.671.366,62.283.366,66.315-.716,14.31-.716,14.31" transform="translate(11.283 -170.554)"/><path class="x" d="M40,339.9s10.733,7.5,19.685,8.935" transform="translate(-24.468 -131.428)"/><path class="y" d="M141.514,342.77s-11.814,8.586-18.254,11.1" transform="translate(37.571 -129.29)"/><path class="x" d="M57.431,337.23s32.581,7.87,33.646,8.237.715,35.793-1.065,37.59-33.3-8.6-35.077-14.677S57.431,337.23,57.431,337.23Z" transform="translate(-13.662 -133.418)"/><path class="x" d="M72,379.138c0-1.012.733-11.448,1.065-19.964a52.354,52.354,0,0,1,3.49-16.456l1.03-.838.4.122c1.082.349.716,35.792-1.065,37.59l-4.433-.332Z" transform="translate(-0.624 -129.953)"/><path class="y" d="M89.96,344.787S66.7,367.246,64.551,364.733,56,338.26,56,338.26" transform="translate(-12.546 -132.65)"/><path class="x" d="M95.77,297.074a3.944,3.944,0,1,0,3.892-3.944,3.944,3.944,0,0,0-3.892,3.944Z" transform="translate(17.088 -166.278)"/><path class="x" d="M95.57,329.467A3.944,3.944,0,1,0,99.5,325.54,3.944,3.944,0,0,0,95.57,329.467Z" transform="translate(16.939 -142.128)"/><path class="x" d="M80,329.467a3.944,3.944,0,1,0,3.927-3.927A3.944,3.944,0,0,0,80,329.467Z" transform="translate(5.337 -142.128)"/><path class="x" d="M77.93,297.074a3.927,3.927,0,1,0,1.144-2.788A3.944,3.944,0,0,0,77.93,297.074Z" transform="translate(3.795 -166.277)"/><path class="aa" d="M131.139,272.62s-15.025,39.736-32.93,79.822S72.8,398.618,72.8,398.618" transform="translate(-0.028 -181.56)"/><path class="x" d="M135.056,251.359s6.457-2.5,17.9,10.034,6.806,26.177-2.513,34.361-26.439,10.733-30.784,12.879a21.325,21.325,0,0,0-7.155,6.457S99.264,304.341,88.881,299.7s-25.043-5.741-29.353-18.271,4.659-25.758,12.9-32.564S135.056,251.359,135.056,251.359Z" transform="translate(-10.751 -201.117)"/><path class="n" d="M117.247,263.479s3.927,10.471-1.082,18.969-8.952,34.013-14.676,32.582S77.86,283.88,74.282,271s2.147-22.564,10.75-24.344S116.165,255.242,117.247,263.479Z" transform="translate(0.27 -201.056)"/><path class="x" d="M101.613,277.769c-5.026-.715-14.153-13.019-14.153-13.019" transform="translate(10.896 -187.424)"/><path class="x" d="M100.126,281.643S88.678,270.195,83.67,264.82" transform="translate(8.072 -187.372)"/><path class="y" d="M78.75,271.18s10.732,12.9,25.042,15.706" transform="translate(4.406 -182.633)"/><path class="x" d="M102,258.05S99.138,271.3,94.13,277.386" transform="translate(15.866 -192.416)"/><path class="x" d="M109.506,226.13s7.155,10.139,8.359,13.717a31.727,31.727,0,0,1,1.187,9.546c0,1.745,6.6,6.6,5.759,9.075-.663,2.007-3.368,2.862-3.368,2.862s-1.536,17.294-5.113,19.685-13.961-2.391-13.961-2.391-5.951,17.294-9.528,14.9S80.9,278.013,80.9,278.013s-2.391-9.528,1.745-13.717,8.935-17.887,8.935-22.687,0-7.748,4.171-11.326S106.574,226.13,109.506,226.13Z" transform="translate(5.498 -216.201)"/><ellipse class="u" cx="0.925" cy="2.269" rx="0.925" ry="2.269" transform="translate(116.592 31.517)"/><path class="y" d="M103.052,236.792s-3.49-4.555-7.452.611" transform="translate(16.961 -209.638)"/><path class="w" d="M96.31,257.842l-7.94-3.822,5.375,10.767Z" transform="translate(11.574 -195.419)"/><path class="y" d="M105.2,248.246s-3.717,1.239-8.062-2.286" transform="translate(18.108 -201.425)"/><path class="w" d="M123.685,233.354s7.155-8.342,0-11.326-27.433-1.745-34.588,3.577-16.107,12.53-16.107,18.481,5.375,5.968,2.984,10.732S62.85,260.787,62.85,267.942s7.748,7.155,8.359,10.139-5.375,12.53,4.764,15.514,20.278-5.968,21.465-8.359,1.745-11.326,5.375-14.9,7.155-14.9,7.155-21.465S121.887,231.574,123.685,233.354Z" transform="translate(-7.442 -220.44)"/></g></g><g transform="translate(1231.933 133.875)"><g transform="translate(0 4.718)"><path class="k" d="M247.784,20.324c-23.148-2.271-46.589-2.271-68.961,4.826-41.242,13.031-62.214,47.962-74.9,86.942-.322.946-.634,1.968-.946,2.953C87.887,162.306-.6,189.448,10.456,262.857s65.072,61.513,71.393,113.62S164.5,455.9,238.718,450.889s71.384-65.356,113.62-92.507S473,319.165,454.9,223.64c-11.848-62.545-42.586-124.333-92.516-165.916-26.479-22.069-60.671-30.35-94.059-34.94C261.516,21.838,254.664,20.986,247.784,20.324Z" transform="translate(-9.503 -18.979)"/><path class="l" d="M247.784,20.324c-23.148-2.271-46.589-2.271-68.961,4.826-41.242,13.031-62.214,47.962-74.9,86.942-.322.946-.634,1.968-.946,2.953C87.887,162.306-.6,189.448,10.456,262.857s65.072,61.513,71.393,113.62S164.5,455.9,238.718,450.889s71.384-65.356,113.62-92.507S473,319.165,454.9,223.64c-11.848-62.545-42.586-124.333-92.516-165.916-26.479-22.069-60.671-30.35-94.059-34.94C261.516,21.838,254.664,20.986,247.784,20.324Z" transform="translate(-9.503 -18.979)"/></g><g transform="translate(111.809)"><path class="m" d="M305.165,34.7c-.218-.662-.445-1.334-.681-2-8.9-24.738-50.28-26.441-50.28,3.956,0,5.858-14.053,0-19.315,7.571s.587,12.3-6.445,14.64-7.571-3.511-16.391-2.934-7.571,8.782-10.542,11.129-2.924,1.173-9.369,1.751-7.571,5.271-7.571,5.271H338.533s5.858-17.564-4.685-24-10.542,2.338-18.738-1.173C308.344,46.043,307.057,40.5,305.165,34.7Z" transform="translate(-130.703 -13.993)"/><path class="m" d="M314.09,69.561s3.189-9.852-4.637-17.1-15.946-3.189-18.265,0-2.309,9.274-6.095,9.852-2.9-6.378-11.016-4.637-4.931,9.861-8.7,11.6-3.785-4.637-8.99-2.612-4.931,5.8-4.931,5.8" transform="translate(-134.291 -15.839)"/><path class="m" d="M271.45,49.845a14.688,14.688,0,0,0-14.848-1.3c-8.394,3.88-4.514,11.953-8.394,13.883s-5.811-.322-10.656,1.893S233,69.814,233,69.814" transform="translate(-133.301 -15.77)"/><path class="m" d="M405.079,95.815c-.133-.416-.274-.823-.426-1.24-5.5-15.3-31.1-16.306-31.1,2.451,0,3.615-8.688,0-11.953,4.732s.369,7.571-3.975,9.057S352.9,108.638,347.484,109s-4.732,5.432-6.52,6.88-1.808.729-5.792,1.088-4.732,3.265-4.732,3.265h95.27s3.625-10.864-2.9-14.848-6.52,1.448-11.593-.729C407.038,102.875,406.253,99.421,405.079,95.815Z" transform="translate(-138.528 -17.696)"/><path class="m" d="M410.594,117.378s1.968-6.095-2.839-10.58-9.871-1.978-11.3,0-1.438,5.735-3.785,6.095-1.8-3.946-6.823-2.839-3.047,6.095-5.375,7.173-2.337-2.839-5.565-1.618-3.047,3.6-3.047,3.6" transform="translate(-140.749 -18.837)"/><path class="m" d="M384.218,105.145a9.1,9.1,0,0,0-9.189-.795c-5.2,2.394-2.792,7.391-5.2,8.583s-3.587-.2-6.625,1.2-2.839,3.4-2.839,3.4" transform="translate(-140.133 -18.792)"/><path class="m" d="M202.289,150.7c-.132-.407-.274-.823-.426-1.24-5.5-15.293-31.1-16.353-31.1,2.451,0,3.625-8.688,0-11.953,4.732s.369,7.571-3.984,9.057-4.732-2.167-10.136-1.808-4.732,5.432-6.52,6.88-1.808.719-5.792,1.088-4.732,3.255-4.732,3.255h95.27s3.615-10.864-2.9-14.848-6.52,1.448-11.593-.719C204.239,157.726,203.463,154.319,202.289,150.7Z" transform="translate(-127.65 -20.64)"/><path class="m" d="M207.8,172.258s1.968-6.095-2.839-10.58-9.871-1.968-11.309,0-1.429,5.744-3.785,6.1-1.789-3.946-6.814-2.839-3.047,6.1-5.375,7.183-2.338-2.839-5.565-1.618-3.047,3.587-3.047,3.587" transform="translate(-129.872 -21.781)"/><path class="m" d="M181.428,160.044a9.1,9.1,0,0,0-9.189-.8c-5.2,2.4-2.839,7.391-5.2,8.593s-3.6-.2-6.625,1.192-2.839,3.4-2.839,3.4" transform="translate(-129.255 -21.737)"/></g><g transform="translate(111.166 203.474)"><path class="u" d="M444.409,248.26H426.684v15.7h-15.2V251.8H401.359v17.224h-14.2l-8.612-8.612H359.814V283.2H319.821V259.039H277.84v6.085h-4.864s-2.735-1.978-2.735-3.492H248.986v17.489h-53.28l-8.82,8.82H147.64V313.8H297.8l-.18.3H464.178v-46.1Z" transform="translate(-128.079 -230.033)"/><path class="ab" d="M393.156,284.11s52.674,2.025,30.889,23.11h-23.3s20.716-12,8.2-16.315c-7.486-2.593-17.631-2.271-17.631-2.271" transform="translate(-141.15 -231.956)"/><rect class="p" width="37.003" height="84.131" transform="translate(45.861)"/><rect class="o" width="25.353" height="1.618" transform="translate(52.012 6.501)"/><rect class="o" width="25.353" height="1.618" transform="translate(52.012 9.946)"/><rect class="o" width="25.353" height="1.618" transform="translate(52.012 13.391)"/><rect class="o" width="25.353" height="1.618" transform="translate(52.012 16.845)"/><rect class="o" width="25.353" height="1.618" transform="translate(52.012 20.29)"/><rect class="o" width="25.353" height="1.618" transform="translate(52.012 23.735)"/><rect class="o" width="25.353" height="1.618" transform="translate(52.012 27.189)"/><rect class="o" width="25.353" height="1.618" transform="translate(52.012 30.634)"/><rect class="o" width="25.353" height="1.618" transform="translate(52.012 34.078)"/><rect class="o" width="25.353" height="1.618" transform="translate(52.012 37.533)"/><rect class="o" width="25.353" height="1.618" transform="translate(52.012 40.977)"/><rect class="o" width="25.353" height="1.618" transform="translate(52.012 44.422)"/><rect class="o" width="25.353" height="1.618" transform="translate(52.012 47.867)"/><rect class="o" width="25.353" height="1.618" transform="translate(52.012 51.321)"/><rect class="o" width="25.353" height="1.618" transform="translate(52.012 54.766)"/><rect class="o" width="25.353" height="1.618" transform="translate(52.012 58.211)"/><rect class="o" width="25.353" height="1.618" transform="translate(52.012 61.665)"/><rect class="o" width="25.353" height="1.618" transform="translate(52.012 65.11)"/><rect class="o" width="25.353" height="1.618" transform="translate(52.012 68.554)"/><rect class="o" width="25.353" height="1.618" transform="translate(52.012 72.009)"/><rect class="o" width="25.353" height="1.618" transform="translate(52.012 75.453)"/><rect class="o" width="25.353" height="1.618" transform="translate(52.012 78.898)"/><path class="p" d="M175.43,229h4.287l14.025,29.214v54.917H175.43Z" transform="translate(-129.569 -229)"/><path class="p" d="M209.609,229.028l-9.9,29.186v54.917h14.025V229Z" transform="translate(-130.872 -229)"/><rect class="p" width="37.003" height="74.185" transform="translate(0 9.946)"/><path class="p" d="M126.97,239.51h4.278l9.161,8.725V313.7H126.97Z" transform="translate(-126.97 -229.564)"/><path class="p" d="M161.149,239.538l-9.9,9.1v50.9L155.1,313.7h10.173V239.51Z" transform="translate(-128.272 -229.564)"/><path class="p" d="M161.132,239.54l-6.047,9.095v64.9l-4.155-14v-50.9Z" transform="translate(-128.255 -229.565)"/><path class="t" d="M131.49,239.51l13.022,8.517V300.55L140.651,313.7v-65.46Z" transform="translate(-127.212 -229.564)"/><rect class="o" width="2.612" height="1.524" transform="translate(23.356 19.732)"/><rect class="o" width="2.612" height="1.524" transform="translate(23.356 22.126)"/><rect class="o" width="2.612" height="1.524" transform="translate(23.356 24.52)"/><rect class="o" width="2.612" height="1.524" transform="translate(23.356 26.905)"/><rect class="o" width="2.612" height="1.524" transform="translate(23.356 29.299)"/><rect class="o" width="2.612" height="1.524" transform="translate(23.356 31.694)"/><rect class="o" width="2.612" height="1.524" transform="translate(23.356 34.088)"/><rect class="o" width="2.612" height="1.524" transform="translate(23.356 36.473)"/><rect class="o" width="2.612" height="1.524" transform="translate(23.356 38.867)"/><rect class="o" width="2.612" height="1.524" transform="translate(23.356 41.261)"/><rect class="o" width="2.612" height="1.524" transform="translate(23.356 43.656)"/><rect class="o" width="2.612" height="1.524" transform="translate(23.356 46.04)"/><rect class="o" width="2.612" height="1.524" transform="translate(23.356 48.435)"/><rect class="o" width="2.612" height="1.524" transform="translate(23.356 50.829)"/><rect class="o" width="2.612" height="1.524" transform="translate(23.356 53.214)"/><rect class="o" width="2.612" height="1.524" transform="translate(23.356 55.608)"/><rect class="o" width="2.612" height="1.524" transform="translate(23.356 58.002)"/><rect class="o" width="2.612" height="1.524" transform="translate(23.356 60.397)"/><rect class="o" width="2.612" height="1.524" transform="translate(23.356 62.781)"/><rect class="o" width="2.612" height="1.524" transform="translate(23.356 65.176)"/><rect class="o" width="2.612" height="1.524" transform="translate(23.356 67.57)"/><rect class="o" width="2.612" height="1.524" transform="translate(23.356 69.964)"/><rect class="o" width="2.612" height="1.524" transform="translate(14.006 19.732)"/><rect class="o" width="2.612" height="1.524" transform="translate(14.006 22.126)"/><rect class="o" width="2.612" height="1.524" transform="translate(14.006 24.52)"/><rect class="o" width="2.612" height="1.524" transform="translate(14.006 26.905)"/><rect class="o" width="2.612" height="1.524" transform="translate(14.006 29.299)"/><rect class="o" width="2.612" height="1.524" transform="translate(14.006 31.694)"/><rect class="o" width="2.612" height="1.524" transform="translate(14.006 34.088)"/><rect class="o" width="2.612" height="1.524" transform="translate(14.006 36.473)"/><rect class="o" width="2.612" height="1.524" transform="translate(14.006 38.867)"/><rect class="o" width="2.612" height="1.524" transform="translate(14.006 41.261)"/><rect class="o" width="2.612" height="1.524" transform="translate(14.006 43.656)"/><rect class="o" width="2.612" height="1.524" transform="translate(14.006 46.04)"/><rect class="o" width="2.612" height="1.524" transform="translate(14.006 48.435)"/><rect class="o" width="2.612" height="1.524" transform="translate(14.006 50.829)"/><rect class="o" width="2.612" height="1.524" transform="translate(14.006 53.214)"/><rect class="o" width="2.612" height="1.524" transform="translate(14.006 55.608)"/><rect class="o" width="2.612" height="1.524" transform="translate(14.006 58.002)"/><rect class="o" width="2.612" height="1.524" transform="translate(14.006 60.397)"/><rect class="o" width="2.612" height="1.524" transform="translate(14.006 62.781)"/><rect class="o" width="2.612" height="1.524" transform="translate(14.006 65.176)"/><rect class="o" width="2.612" height="1.524" transform="translate(14.006 67.57)"/><rect class="o" width="2.612" height="1.524" transform="translate(14.006 69.964)"/><rect class="p" width="33.293" height="75.709" transform="translate(92.563 8.432)"/><rect class="o" width="22.807" height="1.457" transform="translate(98.1 14.271)"/><rect class="o" width="22.807" height="1.457" transform="translate(98.1 17.375)"/><rect class="o" width="22.807" height="1.457" transform="translate(98.1 20.479)"/><rect class="o" width="22.807" height="1.457" transform="translate(98.1 23.583)"/><rect class="o" width="22.807" height="1.457" transform="translate(98.1 26.687)"/><rect class="o" width="22.807" height="1.457" transform="translate(98.1 29.791)"/><rect class="o" width="22.807" height="1.457" transform="translate(98.1 32.886)"/><rect class="o" width="22.807" height="1.457" transform="translate(98.1 35.99)"/><rect class="o" width="22.807" height="1.457" transform="translate(98.1 39.094)"/><rect class="o" width="22.807" height="1.457" transform="translate(98.1 42.198)"/><rect class="o" width="22.807" height="1.457" transform="translate(98.1 45.302)"/><rect class="o" width="22.807" height="1.457" transform="translate(98.1 48.397)"/><rect class="o" width="22.807" height="1.457" transform="translate(98.1 51.501)"/><rect class="o" width="22.807" height="1.457" transform="translate(98.1 54.605)"/><rect class="o" width="22.807" height="1.457" transform="translate(98.1 57.709)"/><rect class="o" width="22.807" height="1.457" transform="translate(98.1 60.813)"/><rect class="o" width="22.807" height="1.457" transform="translate(98.1 63.917)"/><rect class="o" width="22.807" height="1.457" transform="translate(98.1 67.012)"/><rect class="o" width="22.807" height="1.457" transform="translate(98.1 70.116)"/><rect class="o" width="22.807" height="1.457" transform="translate(98.1 73.22)"/><rect class="o" width="22.807" height="1.457" transform="translate(98.1 76.324)"/><rect class="o" width="22.807" height="1.457" transform="translate(98.1 79.428)"/><path class="p" d="M224.78,237.91h3.852l5.82,7.391,5.063,18.889v49.419H224.78Z" transform="translate(-132.217 -229.478)"/><path class="p" d="M255.535,237.929l-4.249,6.719L246.63,264.19v49.419h12.615v-75.7Z" transform="translate(-133.389 -229.478)"/><line class="p" y2="16.306" transform="translate(118.683 66.046)"/><line class="p" y2="48.264" transform="translate(118.683 15.823)"/><line class="p" y2="36.529" transform="translate(101.724 45.823)"/><line class="p" y2="25.448" transform="translate(101.724 17.99)"/><rect class="p" width="33.16" height="79.4" transform="translate(136.38 4.675)"/><path class="p" d="M286.555,230.83c-7.836,0-14.2.274-14.2.606v1.088h28.391v-1.088C300.76,231.1,294.4,230.83,286.555,230.83Z" transform="translate(-134.769 -229.098)"/><ellipse class="o" cx="14.195" cy="0.606" rx="14.195" ry="0.606" transform="translate(137.591 2.754)"/><path class="p" d="M277.165,233.94V238.8h-3.956V233.94H271.08v79.4H279.6v-79.4Z" transform="translate(-134.7 -229.265)"/><rect class="o" width="3.956" height="1.524" transform="translate(138.206 12.587)"/><rect class="o" width="3.956" height="1.524" transform="translate(138.206 16.079)"/><rect class="o" width="3.956" height="1.524" transform="translate(138.206 19.58)"/><rect class="o" width="3.956" height="1.524" transform="translate(138.206 23.082)"/><rect class="o" width="3.956" height="1.524" transform="translate(138.206 26.574)"/><rect class="o" width="3.956" height="1.524" transform="translate(138.206 30.075)"/><rect class="o" width="3.956" height="1.524" transform="translate(138.206 33.577)"/><rect class="o" width="3.956" height="1.524" transform="translate(138.206 37.069)"/><rect class="o" width="3.956" height="1.524" transform="translate(138.206 40.57)"/><rect class="o" width="3.956" height="1.524" transform="translate(138.206 44.072)"/><rect class="o" width="3.956" height="1.524" transform="translate(138.206 47.564)"/><rect class="o" width="3.956" height="1.524" transform="translate(138.206 51.066)"/><rect class="o" width="3.956" height="1.524" transform="translate(138.206 54.567)"/><rect class="o" width="3.956" height="1.524" transform="translate(138.206 58.059)"/><rect class="o" width="3.956" height="1.524" transform="translate(138.206 61.561)"/><rect class="o" width="3.956" height="1.524" transform="translate(138.206 65.062)"/><rect class="o" width="3.956" height="1.524" transform="translate(138.206 68.554)"/><rect class="o" width="3.956" height="1.524" transform="translate(138.206 72.056)"/><rect class="o" width="3.956" height="1.524" transform="translate(138.206 75.557)"/><rect class="o" width="3.956" height="1.524" transform="translate(138.206 79.049)"/><line class="p" x2="17.64" transform="translate(147.329 9.539)"/><line class="p" x1="5.177" transform="translate(162.234 15.322)"/><line class="p" x2="19.164" transform="translate(146.724 27.189)"/><line class="p" x2="4.864" transform="translate(154.938 35.403)"/><line class="p" x1="14.602" transform="translate(153.717 48.482)"/><line class="p" x1="2.129" transform="translate(149.761 48.482)"/><line class="p" x2="9.435" transform="translate(150.367 70.684)"/></g><g transform="translate(91.017 112.869)"><path class="o" d="M321.23,318.936l29.706-101.951-14.2-83.724h3.379l.331,1.949,9.123,4.8,4.789,29.034h18.795l4.789-29.034L390.1,133.26h3.379l-3.71,2.054-13.173,81.671,29.716,101.951H382.649l.946-8.2a63.861,63.861,0,0,0-37.854.521l-1.751.568.814,7.107ZM355.5,175.789l5.347,32.413h5.848l5.347-32.413Zm10.968,47.943v-.672H361.1v.672l-15.142,57.4h35.668Zm18.293,76.977.615-5.4-1.041-3.927a63.832,63.832,0,0,0-38.536.3l-2.934.946-.7,2.678.615,5.4Z" transform="translate(-253.688 -133.26)"/><path class="n" d="M317.66,318.936l29.706-101.951-14.2-83.724,12.823,6.748,4.8,29.034h18.795l4.789-29.034,12.151-6.748-13.5,83.724,29.716,101.951H379.079l.946-8.2a63.832,63.832,0,0,0-37.854.521l-1.751.568.814,7.107Zm34.258-143.146,5.356,32.413h5.848l5.347-32.413ZM362.9,223.732v-.672h-5.4v.672l-15.142,57.4h35.706Zm18.284,76.977.625-5.4-1.041-3.927a63.832,63.832,0,0,0-38.536.3l-2.934.946-.71,2.678.625,5.4Z" transform="translate(-246.74 -133.26)"/><path class="p" d="M312.131,315.956v3.719c-46.523-1.893-140.355-5.678-205.36-6.937l-1.05-3.729C170.981,310.278,265.352,314.007,312.131,315.956Z" transform="translate(44.439 -142.687)"/><line class="p" x1="351.781" transform="translate(2.214 185.837)"/><line class="p" x2="163.503" y2="140.989" transform="translate(95.592 18.17)"/><line class="p" x2="151.588" y2="135.216" transform="translate(96.15 21.558)"/><line class="p" x2="141.273" y2="130.673" transform="translate(97.087 25.306)"/><line class="p" x2="129.396" y2="125.27" transform="translate(97.56 29.981)"/><line class="p" x2="117.528" y2="118.219" transform="translate(98.024 34.656)"/><line class="p" x2="106.674" y2="111.822" transform="translate(99.425 39.804)"/><line class="p" x2="96.955" y2="106.276" transform="translate(101.298 45.889)"/><line class="p" x2="84.68" y2="99.652" transform="translate(101.298 51.974)"/><line class="p" x2="72.51" y2="91.702" transform="translate(102.708 57.586)"/><line class="p" x2="58.485" y2="85.153" transform="translate(104.109 64.135)"/><line class="p" x2="48.189" y2="77.195" transform="translate(104.573 69.747)"/><line class="p" x1="114.547" y2="150.074" transform="translate(16.694 18.17)"/><line class="p" x1="107.819" y2="146.108" transform="translate(23.006 22.031)"/><line class="p" x1="101.109" y2="142.096" transform="translate(29.006 26.29)"/><line class="p" x1="92.639" y2="136.257" transform="translate(37.126 31.618)"/><line class="p" x1="85.788" y2="131.099" transform="translate(43.627 36.955)"/><line class="p" x1="78.169" y2="124.503" transform="translate(50.195 42.813)"/><line class="p" x1="70.551" y2="117.5" transform="translate(56.413 49.741)"/><line class="p" x1="62.11" y2="111.046" transform="translate(64.854 56.668)"/><line class="p" x1="54.368" y2="104.44" transform="translate(71.545 63.065)"/><line class="p" x1="43.845" y2="96.983" transform="translate(81.018 70.523)"/><line class="p" x1="36.719" y2="89.346" transform="translate(87.784 76.92)"/><path class="p" d="M106.617,285.55c80.138,2.1,155.487,10.533,205.36,17.233,21.5,2.9,40.059,5.725,54.643,8.082v3.785c-14.64-2.375-33.378-5.233-55.135-8.167-49.741-6.691-125.866-15.142-205.8-17.2Z" transform="translate(-10.012 -141.429)"/><path class="p" d="M339.99,309.251c17.981-.644,46.949-1.192,92.469-1.013,13.315.047,27.615.208,42.4.454l-1.76,3.681c-14.2-.227-27.861-.379-40.646-.426-45.425-.17-74.46.388-92.459,1.05Z" transform="translate(-339.99 -142.644)"/></g><g transform="translate(112.017 302.018)"><line class="p" y2="41.337" transform="translate(263.325 17.527)"/><line class="p" y2="13.419" transform="translate(263.325 0.511)"/><line class="p" y2="5.158" transform="translate(241.123 6.199)"/><line class="p" y2="4.401" transform="translate(195.168 12.123)"/><line class="p" y2="5.072" transform="translate(195.168 4.126)"/><line class="p" y2="6.71" transform="translate(301.018 2.063)"/><line class="p" y2="6.047" transform="translate(150.244 40.94)"/><line class="p" y2="32.754" transform="translate(150.244 4.126)"/><line class="p" y2="42.861" transform="translate(45.946 4.126)"/><line class="p" y2="47.327" transform="translate(73.835 16.183)"/><line class="p" y2="8.678" transform="translate(73.835 4.126)"/><line class="p" y2="25.817" transform="translate(165.736)"/><line class="p" y2="21.681" transform="translate(118.749 1.552)"/><line class="p" y2="36.141" transform="translate(0 5.167)"/><line class="p" y2="23.233" transform="translate(8.773 24.785)"/></g><g transform="translate(45.214 12.858)"><path class="u" d="M103.443,148.165a69.306,69.306,0,0,1-1.287,10.3s-7.722-3.218-11.583-6.435l-3.861-3.218a15.5,15.5,0,0,1,0,8.366c-1.287,4.5-6.435,11.583-6.435,11.583l-5.148-5.792-1.893-5.148s1.287,14.8-2.574,19.306a53.27,53.27,0,0,1-8.366,7.722L57.28,172.3c17.034-15.7,34.571-30.132,43.807-46.637,2.489.729,5.025,1.448,6.9,1.893,3.132.785,6.265,3.246,8.243,5.044,1.259,1.155,2.054,2.035,2.054,2.035l-12.227,1.287s5.792,1.893,6.435,3.861,1.287,5.148,1.287,5.148L101.494,141.1A15.36,15.36,0,0,1,103.443,148.165ZM227.634,60.021c3.218,1.287,12.861,10.3,12.861,10.3s-5.792.644-14.148,1.287-14.2-5.148-14.2-5.148,4.5,5.792,7.079,9.009S220.518,92.2,220.518,92.2s-15.009,2.839-21.236-3.861-7.722-10.3-7.722-10.3L190.272,96.7s-8.3-3.719-14.971-7.571c.946,4.3,1.457,7.571,1.457,7.571s-4.5-1.287-14.2-3.861S142.689,81.92,142.689,81.92a53.469,53.469,0,0,1,5.177,11.565,50.7,50.7,0,0,1,1.893,12.87l-9.653-10.3s2.574,7.079.644,11.583a37.032,37.032,0,0,1-4.5,7.722s-3.218-3.861-7.713-10.3-4.5-19.949-4.5-19.949-3.218,18.662-7.079,25.1l-3.861,6.435L108,108.011c.426-1.23.852-2.451,1.3-3.672v-.114c.435-1.192.88-2.375,1.334-3.558v-.095c.454-1.192.946-2.385,1.4-3.558h0c6.322-15.662,14.366-30.179,24.993-42.293h0a96.614,96.614,0,0,1,38.8-27.142c15.851.293,35.668,1.59,35.668,1.59l-11.583,3.218,9.653,3.861c3.218,1.287,12.87,10.3,12.87,10.3s-5.792.644-14.2,1.287-14.2-5.148-14.2-5.148,4.4,5.678,6.984,8.9c14.053.464,28.391,1.4,28.391,1.4L217.839,56.2ZM147.194,44.737l-.53,5.016h.36a41.415,41.415,0,0,1,.151-5.016Z" transform="translate(-57.28 -27.58)"/></g><g transform="translate(295.693 134.762)"><path class="p" d="M57.771,441.831c-3.1-1.06-4.931-1.77-4.931-1.77l5.1-18.265s53.753-.35,64.352-1.06,17.262-8.072,21.189-7.022,8.631,13.344,8.631,13.344l3.53.36.946,14.413Z" transform="translate(-39.038 -170.191)"/><path class="ac" d="M54.5,408.238l-3.53,18.047s7.457,4.315,30.208,6.274,51.785-.785,51.785-.785l5.5-11.763,1.959,13.732h11.356a6.066,6.066,0,0,0,3.142-.785l-3.53-14.517s-1.571-14.517-9.028-18.047-13.732.388-18.833,5.1-10.959,3.918-19.2,3.918-43.154-3.53-43.154-3.53S55.285,403.923,54.5,408.238Z" transform="translate(-35.597 -169.409)"/><path class="n" d="M171.553,267.791s-14.129,36.094-20.006,49.04-11.356,27.851-10.6,36.094,10.6,29.82,10.6,29.82,9.416-61.987,11.356-68.27,10.987-41.2,10.987-41.2S177.837,265.832,171.553,267.791Z" transform="translate(-140.877 -162.351)"/><path class="n" d="M144.988,252.709s8.233,8.517,10.77,19,4.429,140.932,4.429,143.146-9.464-2.839-11.356-3.785-9.814-15.842-9.814-15.842l-3.785,15.208s-17.413-1.893-31.987-1.893-52.892-3.483-52.892-3.483-3.483-21.217-3.161-32.621,2.839-29.46,2.839-32.309S62.068,277.106,66.5,268.211,76.632,251.432,77.579,250.8s12.359-7.287,23.129-7.921,18-3.473,27.463.984S144.988,252.709,144.988,252.709Z" transform="translate(-37.269 -160.954)"/><path class="t" d="M140.528,294.51s-5.385,31.041-6.965,41.488-5.072,51.312-5.072,57.321v14.271" transform="translate(-94.568 -163.802)"/><path class="t" d="M129.989,308.56S123.97,339.6,120.8,358.291s-2.214,45.321-2.214,45.321" transform="translate(-74.528 -164.556)"/><path class="t" d="M110.493,311.1,83.256,308.56l-.946,6.019,26.28,2.224" transform="translate(-20.831 -164.556)"/><path class="t" d="M137.53,304.55l15.833,1.268-1.268,5.385-13.93-1.268" transform="translate(-115.958 -164.341)"/><path class="o" d="M91.747,223.139s14.574-2.839,19-.946,8.517,9.464,9.823,12.038,14.564,7.921,15.511,11.716.322,10.1-1.259,11.706-10.77.946-12.993,1.59-31.987,20.271-37.05,23.432-13.94,7.571-15.208,6.341-9.18-20.905-10.41-30.094.284-11.394,4.4-18.965S84.148,224.086,91.747,223.139Z" transform="translate(-24.57 -159.888)"/><path class="p" d="M134.931,196.68s-2.224,13.93-2.224,17.735,6.019,21.851,6.019,21.851-12.028,25.968-18.681,33.255-9.823,8.867-9.823,8.867-.946-14.886-1.893-21.851-10.959-27.35-10.959-27.35,15.085,2.328,16.978-7.486,1.268-18.369,3.17-23.441S131.127,194.456,134.931,196.68Z" transform="translate(-63.316 -158.45)"/><path class="o" d="M132.514,226.153l7.24-1.363-.6,6.246s-4.467,11.6-12.785,17.546a14.944,14.944,0,0,1-1.353.861c-1.722-4.978-8.669-18.643-8.669-18.643S129.495,234.452,132.514,226.153Z" transform="translate(-82.305 -160.062)"/><path class="p" d="M111.358,192.5l.5,8.7s-7.855,5.678-8.631,8.423,3.785,6.341,3.785,6.341.7,15.009,2.016,17.356,7.836,2.536,11.451,2.574,21.511-5.12,24.605-7.864,6.842-12.511,6.842-12.511l4.561-16.154c.606-2.129-1.543-5.035-10.9-8.006S110.866,188.408,111.358,192.5Z" transform="translate(-86.635 -158.157)"/><path class="o" d="M103.161,203.087s-2.177,4.817-6.208,1.779-4.883-8.716-4.883-8.716l23.99,6.483s1.893,9.766-1.893,14.413-9.265,2.006-8.953-1.987S103.161,203.087,103.161,203.087Z" transform="translate(-36.108 -158.526)"/><path class="o" d="M109.176,216.662s10.628,1.448,11.829,3.719,2.319,5.224,3.473,6.095,10.249.426,14.546-1.524,6.624-6.019,7.486-10.363,2.319-12.18,2.319-12.18l4.931.293s-2.205,20.943-4.344,23.479a18.549,18.549,0,0,1-8.99,6.085,110.06,110.06,0,0,1-17.744,4.325c-7.476,1.183-12.7,1.183-13.855-2.584S109.176,216.662,109.176,216.662Z" transform="translate(-88.778 -158.862)"/><path class="ad" d="M146.42,224.721s4.931,1.457,8.12-.871" transform="translate(-125.549 -160.012)"/><path class="u" d="M142.964,202.871c-.4,1.429-.18,2.744.492,2.934s1.543-.814,1.949-2.252.18-2.744-.492-2.934S143.371,201.4,142.964,202.871Z" transform="translate(-113.159 -158.765)"/><path class="o" d="M143.021,201.446a320.2,320.2,0,0,1-31.23-7.164c-17.034-4.817-24.52-7.571-24.52-7.571l7.647-24.066a9.113,9.113,0,0,1,4.684-4.732c4.864-2.186,15.009-1.685,22.315-.549,10.41,1.618,18.454,4.552,22.609,11.981a27.53,27.53,0,0,1,2.328,19.741C145.737,193.024,143.021,201.446,143.021,201.446Z" transform="translate(-62.757 -156.394)"/><path class="o" d="M173.061,197.2s-25.94-1.4-35.867-3.549S119.1,179.66,119.1,179.66l23.773,3.095A54.737,54.737,0,0,1,173.061,197.2Z" transform="translate(-118.216 -157.642)"/><path class="p" d="M99.864,205.375s2.2-6.625,7.817-4.382S110.2,214.243,106,218.624s-9.4-1.666-9.4-1.666" transform="translate(-34.59 -158.761)"/><path class="n" d="M39.911,288.17c1.987,5.356,5.139,52.8,5.139,52.8l.568,5.281.511,1.155-24.9,18.681s4.808,11.035,8.7,15.208,12.123,8.224,12.123,8.224a147.9,147.9,0,0,0,26.839-18.927c12.359-11.271,19.533-18.842,21.766-25.646s-5.848-18.18-7.315-19.968-19.3-55.949-25.022-60.368S45.542,256.694,40.2,261.1s-6.568,14.262-5.678,17.981" transform="translate(56.422 -161.901)"/><path class="t" d="M65.655,343.437a48.463,48.463,0,0,0-8.366-.3c-2.839.558-12.019,7.315-12.019,7.315" transform="translate(59.061 -166.405)"/><path class="t" d="M40.9,344.607s-3.085-.379-6.795-.767" transform="translate(94.372 -166.448)"/><path class="t" d="M42.26,337.435a19.374,19.374,0,0,1,3.861-3.407c2.035-.89,12.927-.454,12.927-.454" transform="translate(68.515 -165.892)"/><path class="t" d="M63.31,344.7s1.325-1.543,3.019-3.435" transform="translate(41.314 -166.31)"/><path class="n" d="M78.647,365.54s7.287,20.82,23.952,31.769l-3.643,5.725s-24.473-10.41-27.6-34.883" transform="translate(-2.575 -167.612)"/><path class="ae" d="M136.788,197.2l13.628,1.164s-.577,8.7-3.785,10.145-8.12.577-9.861-1.155S136.788,197.2,136.788,197.2Z" transform="translate(-111.563 -158.583)"/><line class="ae" x2="25.845" y2="6.833" transform="translate(38.852 39.781)"/><path class="ae" d="M158.406,197.151l-7.571-.871s-1.741,6.672,1.741,8.7" transform="translate(-133.182 -158.533)"/></g><g transform="translate(308.794 323.364)"><path class="u" d="M404.339,380.159c2.11.946,7.249.8,7.259.8s-1.107-3.369-1.2-3.577c-1.136-2.356-4.732-6.255-7.571-5.867a3.473,3.473,0,0,0-2.782,4.353C400.488,377.878,402.551,379.373,404.339,380.159Z" transform="translate(-339.239 -356.534)"/><path class="u" d="M406.155,394.216c2.177.312,6.776-1.013,7.136-1.126a60.99,60.99,0,0,0,2.792,7.713c.625,1.457,1.306,2.915,2.006,4.363-.416-.615-.795-1.164-.852-1.23-1.713-1.978-6.189-4.8-8.886-3.653a3.464,3.464,0,0,0-1.533,4.931c.994,1.808,3.379,2.707,5.309,2.991s5.905-.776,6.946-1.069l.814,1.666c1.334,2.64,2.669,5.281,3.908,7.9.435.946.823,1.893,1.221,2.782-.369-.539-.691-1-.748-1.06-1.713-1.987-6.18-4.8-8.877-3.653a3.464,3.464,0,0,0-1.543,4.921c1,1.817,3.388,2.716,5.319,3s5.517-.672,6.757-1.013c.379.946.757,1.893,1.079,2.839.208.653.454,1.268.625,1.893s.369,1.306.549,1.949c.293,1.259.615,2.546.88,3.785.189.852.35,1.666.52,2.489-.426-.946-1.287-2.716-1.382-2.839-1.391-2.215-5.385-5.678-8.224-4.959a3.473,3.473,0,0,0-2.271,4.637c.71,1.949,2.934,3.189,4.807,3.785,2.054.625,6.625.057,7.183,0,.227,1.145.445,2.262.634,3.35h1.76c-.255-1.306-.558-2.678-.871-4.1a36.564,36.564,0,0,0,4-1.893c1.5,1.628,5.347,3.53,5.848,3.785-.312.757-.615,1.5-.946,2.214h1.826q.379-.946.767-1.987c.549.114,5.063,1.032,7.164.549,1.893-.426,4.221-1.5,5.072-3.388a3.473,3.473,0,0,0-1.893-4.8c-2.773-.946-7.013,2.224-8.574,4.325-.085.132-.946,1.59-1.448,2.517.218-.6.445-1.164.662-1.779.445-1.211.852-2.423,1.3-3.738.189-.644.379-1.287.577-1.94s.341-1.353.52-2.025c.379-1.59.681-3.218.946-4.864,1.06.388,4.836,1.7,6.8,1.561s4.391-.852,5.517-2.584a3.454,3.454,0,0,0-1.164-5.025c-2.6-1.344-7.278,1.126-9.132,2.981-.114.114-1.3,1.58-1.893,2.4.161-.946.322-1.978.445-2.981.36-2.905.634-5.858.946-8.8.095-.946.189-1.8.284-2.7.379.133,4.836,1.8,7.031,1.647,1.949-.142,4.391-.852,5.527-2.593a3.464,3.464,0,0,0-1.173-5.025c-2.6-1.344-7.268,1.136-9.123,2.981-.142.133-1.893,2.262-2.243,2.839.208-1.978.435-3.946.738-5.886a60.64,60.64,0,0,1,1.685-7.741c.18.066,4.826,1.826,7.069,1.666,1.949-.132,4.4-.852,5.527-2.584a3.473,3.473,0,0,0-1.164-5.035c-2.6-1.344-7.277,1.136-9.132,2.981-.142.142-1.968,2.432-2.271,2.839.047-.142.076-.3.114-.445a44.2,44.2,0,0,1,3.076-7.325c.662-1.306,1.372-2.517,2.091-3.681.833.416,4.656,2.271,6.691,2.356s4.467-.369,5.782-1.968a3.473,3.473,0,0,0-.606-5.12c-2.442-1.628-7.363.322-9.407,1.959-.114.085-1.145,1.117-1.893,1.893.331-.52.662-1.06.994-1.552,1.221-1.845,2.461-3.464,3.568-4.883.634-.8,1.23-1.524,1.789-2.186,1.032,0,5.177-.142,6.984-.994s3.785-2.375,4.221-4.4a3.454,3.454,0,0,0-2.9-4.268c-2.915-.322-6.378,3.672-7.438,6.066-.095.208-1.164,3.606-1.107,3.606h.057c-.549.625-1.136,1.306-1.76,2.054-1.136,1.4-2.413,2.991-3.681,4.826a59.821,59.821,0,0,0-3.785,6.085,44.983,44.983,0,0,0-3.265,7.353v.085c0-.852,0-3.255-.047-3.445-.331-2.593-2.508-7.41-5.394-7.94a3.473,3.473,0,0,0-4,3.256c-.161,2.063,1.334,4.126,2.839,5.432,1.637,1.467,6.208,2.9,6.568,3a62.4,62.4,0,0,0-1.893,7.968c-.274,1.571-.511,3.151-.719,4.732v-1.5c-.341-2.593-2.517-7.41-5.394-7.94a3.464,3.464,0,0,0-4,3.265c-.17,2.054,1.325,4.126,2.782,5.423s5.347,2.612,6.378,2.943c-.076.615-.161,1.221-.237,1.836-.35,2.943-.691,5.877-1.107,8.754-.151,1-.331,2-.511,2.991v-1.3c-.331-2.6-2.508-7.419-5.394-7.949a3.454,3.454,0,0,0-3.994,3.265c-.17,2.063,1.325,4.126,2.782,5.423s4.968,2.489,6.189,2.886c-.218,1-.426,2.016-.681,2.99-.189.653-.322,1.306-.549,1.95s-.416,1.3-.615,1.893c-.445,1.211-.89,2.461-1.353,3.634-.312.814-.625,1.59-.946,2.366.161-1,.426-2.981.435-3.151a13.486,13.486,0,0,0-1.808-6.549,4.171,4.171,0,0,0-.047-.767,3.483,3.483,0,0,0-4.249-2.943c-2.839.757-4.628,5.725-4.732,8.337,0,.151.095,1.836.18,2.9-.151-.615-.274-1.211-.435-1.845-.293-1.249-.625-2.5-.946-3.833l-.587-1.94c-.18-.644-.454-1.315-.681-1.978-.558-1.533-1.2-3.057-1.893-4.58,1.1-.265,4.978-1.249,6.53-2.442s3.2-3.142,3.189-5.214a3.473,3.473,0,0,0-3.785-3.549c-2.915.322-5.442,4.959-5.972,7.524,0,.161-.208,2.044-.284,3.076-.416-.946-.823-1.817-1.278-2.725-1.306-2.631-2.707-5.243-4.088-7.855l-1.259-2.4c.4-.095,5.035-1.164,6.776-2.508,1.552-1.192,3.2-3.132,3.18-5.2A3.464,3.464,0,0,0,426,394.623c-2.915.312-5.442,4.959-5.972,7.514,0,.2-.284,2.905-.312,3.6-.946-1.76-1.817-3.53-2.631-5.319a61.7,61.7,0,0,1-2.839-7.382c.18-.047,5.025-1.145,6.814-2.517,1.552-1.192,3.2-3.132,3.18-5.2a3.464,3.464,0,0,0-3.785-3.549c-2.915.312-5.442,4.959-5.972,7.571,0,.2-.3,3.114-.312,3.643a1.651,1.651,0,0,0-.151-.445,44.912,44.912,0,0,1-1.476-7.8c-.17-1.457-.246-2.839-.284-4.221.946-.114,5.139-.672,6.88-1.732s3.52-2.763,3.738-4.826a3.464,3.464,0,0,0-3.341-3.937c-2.924,0-5.953,4.334-6.757,6.823-.047.133-.341,1.561-.539,2.6V377.6c0-2.214.142-4.249.284-6.038.085-1.022.189-1.949.293-2.839.842-.577,4.23-2.972,5.281-4.732s1.845-4.079,1.088-6a3.473,3.473,0,0,0-4.779-1.959c-2.6,1.344-3.284,6.625-2.839,9.161,0,.227,1.022,3.653,1.069,3.615h.047c-.114.823-.227,1.713-.331,2.688-.18,1.8-.36,3.785-.416,6.047a62.455,62.455,0,0,0,.17,7.192,45.09,45.09,0,0,0,1.334,7.931v.095c-.464-.729-1.817-2.707-1.94-2.839-1.713-1.978-6.18-4.8-8.877-3.653a3.473,3.473,0,0,0-1.543,4.931C401.83,393.033,404.224,393.932,406.155,394.216Z" transform="translate(-339.276 -355.686)"/><path class="u" d="M459.175,381.11c.047,0,.946-3.426.946-3.643.369-2.593-.464-7.817-3.1-9.094a3.464,3.464,0,0,0-4.732,2.091c-.71,1.949.189,4.334,1.249,5.972C454.841,378.413,459.175,381.1,459.175,381.11Z" transform="translate(-342.035 -356.35)"/><path class="u" d="M338.828,402.816c1.438.634,4.94.549,4.94.549s-.748-2.29-.814-2.432c-.776-1.609-3.2-4.259-5.177-3.994a2.366,2.366,0,0,0-1.893,2.962A4.911,4.911,0,0,0,338.828,402.816Z" transform="translate(-335.8 -357.898)"/><path class="u" d="M374.984,442.148a2.366,2.366,0,0,0-1.306-3.265c-1.893-.634-4.779,1.514-5.839,2.953-.047.066-.4.662-.719,1.23h7.2a3.161,3.161,0,0,0,.663-.918Z" transform="translate(-337.48 -360.142)"/><path class="u" d="M363.985,430.259a14.991,14.991,0,0,0,4.211,1.959c-.142.691-.284,1.382-.464,2.035-.123.454-.218.89-.369,1.334l-.426,1.315c-.293.823-.6,1.675-.946,2.47-.142.379-.284.738-.435,1.107h1.183c.095-.246.189-.483.274-.729.3-.823.577-1.656.88-2.546l.4-1.325c.142-.435.237-.946.35-1.382.265-1.079.473-2.186.653-3.3a15.682,15.682,0,0,0,4.628,1.06,5,5,0,0,0,3.785-1.76,2.366,2.366,0,0,0-.795-3.426c-1.77-.946-4.949.776-6.218,2.025-.076.085-.88,1.088-1.315,1.647.1-.672.218-1.344.3-2.035.246-1.978.435-3.984.625-5.99.057-.615.133-1.23.189-1.836A16.523,16.523,0,0,0,375.285,422a4.959,4.959,0,0,0,3.785-1.76,2.366,2.366,0,0,0-.795-3.426c-1.779-.946-4.959.776-6.218,2.035-.095.095-1.249,1.533-1.524,1.893.142-1.353.293-2.688.5-4.013a40.174,40.174,0,0,1,1.145-5.262c.123,0,3.284,1.24,4.817,1.126a5.027,5.027,0,0,0,3.785-1.76A2.356,2.356,0,0,0,380,407.4c-1.779-.946-4.959.776-6.218,2.035-.1.095-1.344,1.647-1.552,1.949a2.842,2.842,0,0,1,.085-.3,30.1,30.1,0,0,1,2-4.969c.454-.89.946-1.713,1.429-2.508a15.88,15.88,0,0,0,4.561,1.609,4.953,4.953,0,0,0,3.927-1.344,2.366,2.366,0,0,0-.407-3.492c-1.666-1.1-5.016.227-6.407,1.334L376.2,403c.218-.35.445-.719.672-1.06.833-1.249,1.675-2.356,2.432-3.322.426-.549.833-1.032,1.211-1.486a15.739,15.739,0,0,0,4.732-.672,4.978,4.978,0,0,0,2.839-3,2.356,2.356,0,0,0-1.978-2.905c-1.978-.218-4.344,2.5-5.063,4.126-.066.142-.795,2.461-.757,2.461h.047c-.379.435-.776.89-1.2,1.41-.776.946-1.647,2.035-2.508,3.274a41.818,41.818,0,0,0-2.6,4.145,30.934,30.934,0,0,0-2.224,5.006V408.7c-.227-1.77-1.713-5.044-3.672-5.413a2.366,2.366,0,0,0-2.725,2.224,4.949,4.949,0,0,0,1.893,3.7,16.6,16.6,0,0,0,4.476,2.044,40.866,40.866,0,0,0-1.315,5.423c-.189,1.06-.35,2.148-.492,3.227v-1.013c-.227-1.77-1.713-5.054-3.672-5.413a2.366,2.366,0,0,0-2.725,2.224,5.028,5.028,0,0,0,1.893,3.691A15.73,15.73,0,0,0,369.8,421.4c-.047.416-.1.833-.151,1.249-.246,2-.473,4-.757,5.953-.1.691-.227,1.363-.35,2.044v-.89c-.237-1.76-1.713-5.044-3.672-5.4a2.356,2.356,0,0,0-2.726,2.214,4.94,4.94,0,0,0,1.845,3.691Z" transform="translate(-337.213 -357.556)"/><path class="u" d="M340.081,412.4c1.486.218,4.609-.691,4.864-.767a41.064,41.064,0,0,0,1.893,5.243c.426,1,.9,1.987,1.372,2.972-.284-.416-.539-.785-.587-.833-1.164-1.353-4.211-3.265-6.047-2.489a2.356,2.356,0,0,0-1.041,3.36,4.921,4.921,0,0,0,3.615,2.035,15.226,15.226,0,0,0,4.732-.729l.558,1.136c.946,1.8,1.817,3.6,2.659,5.385.293.625.568,1.259.833,1.893-.246-.369-.464-.681-.5-.729-1.173-1.344-4.211-3.265-6.047-2.489a2.366,2.366,0,0,0-1.05,3.36,4.94,4.94,0,0,0,3.625,2.035,14.868,14.868,0,0,0,4.59-.691c.265.663.52,1.315.738,1.959.142.445.312.861.426,1.315l.369,1.325c.208.852.426,1.732.6,2.574.133.577.246,1.136.36,1.694-.284-.634-.88-1.893-.946-1.95-.946-1.5-3.672-3.871-5.6-3.369a2.356,2.356,0,0,0-1.543,3.151,4.732,4.732,0,0,0,2.962,2.461h6.322l-.085-.416a24.761,24.761,0,0,0,2.725-1.287,11.207,11.207,0,0,0,2.356,1.7h1.845c.1-.7.218-1.552.218-1.637a9.227,9.227,0,0,0-1.23-4.467,3.208,3.208,0,0,0,0-.521,2.366,2.366,0,0,0-2.886-2.006c-1.893.521-3.151,3.9-3.237,5.678,0,.114.057,1.259.114,1.978-.095-.416-.189-.833-.293-1.259-.2-.852-.426-1.694-.662-2.612-.133-.435-.265-.871-.407-1.315s-.312-.9-.464-1.353c-.379-1.041-.814-2.082-1.278-3.114a15.615,15.615,0,0,0,4.448-1.666,4.97,4.97,0,0,0,2.167-3.549,2.366,2.366,0,0,0-2.555-2.413c-1.987.218-3.71,3.369-4.069,5.12,0,.1-.132,1.391-.189,2.091-.284-.615-.558-1.24-.871-1.893-.88-1.789-1.836-3.568-2.782-5.347l-.852-1.637c.265-.066,3.426-.795,4.609-1.7a4.94,4.94,0,0,0,2.167-3.549,2.356,2.356,0,0,0-2.555-2.413c-1.978.208-3.7,3.369-4.06,5.12,0,.133-.2,1.968-.218,2.442-.625-1.2-1.23-2.4-1.789-3.615a42.372,42.372,0,0,1-1.95-5.035,15.661,15.661,0,0,0,4.637-1.713,4.9,4.9,0,0,0,2.167-3.539,2.366,2.366,0,0,0-2.546-2.423c-1.987.218-3.71,3.379-4.069,5.12,0,.142-.208,2.129-.208,2.489,0-.1-.076-.2-.1-.3a30.768,30.768,0,0,1-1.013-5.309c-.114-.994-.161-1.95-.189-2.839a16.423,16.423,0,0,0,4.732-1.173A4.968,4.968,0,0,0,351.4,398.6a2.366,2.366,0,0,0-2.271-2.688c-2,0-4.06,2.953-4.609,4.647,0,.095-.227,1.06-.36,1.77v-1.249c0-1.514.095-2.9.189-4.117.057-.7.123-1.325.2-1.893a15.812,15.812,0,0,0,3.6-3.189,4.93,4.93,0,0,0,.738-4.088,2.356,2.356,0,0,0-3.246-1.334c-1.779.946-2.243,4.486-1.949,6.246,0,.151.691,2.479.729,2.461h0c-.076.568-.151,1.173-.227,1.836-.114,1.221-.246,2.6-.274,4.117a39.3,39.3,0,0,0,.114,4.893,30.56,30.56,0,0,0,.946,5.4.132.132,0,0,0,0,.057c-.312-.492-1.24-1.836-1.325-1.893-1.164-1.353-4.211-3.274-6.047-2.489a2.347,2.347,0,0,0-1.041,3.35C337.138,411.564,338.766,412.2,340.081,412.4Z" transform="translate(-335.823 -357.324)"/><path class="u" d="M376.186,403.5s.644-2.328.662-2.479c.246-1.77-.322-5.319-2.11-6.189a2.366,2.366,0,0,0-3.218,1.42,4.955,4.955,0,0,0,.852,4.069C373.224,401.6,376.186,403.5,376.186,403.5Z" transform="translate(-337.707 -357.774)"/></g><g transform="translate(4.757 406.099)"><line class="p" x2="438.401"/></g></g><g transform="translate(1130.5 41.125)"><ellipse class="h" cx="39.5" cy="39" rx="39.5" ry="39" transform="translate(110.5 81)"/><circle class="g" cx="6" cy="6" r="6" transform="translate(0.5 174)"/><circle class="k" cx="6" cy="6" r="6" transform="translate(335.5)"/><ellipse class="af" cx="12.5" cy="13" rx="12.5" ry="13" transform="translate(26.5 314)"/><circle class="j" cx="9.5" cy="9.5" r="9.5" transform="translate(495.5 81)"/></g></g><rect class="ag" width="1680" height="945" transform="translate(0 60)"/></g></svg>